<?xml version="1.0" encoding="UTF-8"?>
<svg width="700pt" height="700pt" version="1.1" viewBox="0 0 700 700" xmlns="http://www.w3.org/2000/svg" xmlns:xlink="http://www.w3.org/1999/xlink">
 <defs>
  <symbol id="y" overflow="visible">
   <path d="m18.766-1.125c-0.96875 0.5-1.9805 0.875-3.0312 1.125-1.043 0.25781-2.1367 0.39062-3.2812 0.39062-3.3984 0-6.0898-0.94531-8.0781-2.8438-1.9922-1.9062-2.9844-4.4844-2.9844-7.7344 0-3.2578 0.99219-5.8359 2.9844-7.7344 1.9883-1.9062 4.6797-2.8594 8.0781-2.8594 1.1445 0 2.2383 0.13281 3.2812 0.39062 1.0508 0.25 2.0625 0.625 3.0312 1.125v4.2188c-0.98047-0.65625-1.9453-1.1406-2.8906-1.4531-0.94922-0.3125-1.9492-0.46875-3-0.46875-1.875 0-3.3516 0.60547-4.4219 1.8125-1.0742 1.1992-1.6094 2.8555-1.6094 4.9688 0 2.1055 0.53516 3.7617 1.6094 4.9688 1.0703 1.1992 2.5469 1.7969 4.4219 1.7969 1.0508 0 2.0508-0.14844 3-0.45312 0.94531-0.3125 1.9102-0.80078 2.8906-1.4688z"></path>
  </symbol>
  <symbol id="b" overflow="visible">
   <path d="m13.734-11.141c-0.4375-0.19531-0.87109-0.34375-1.2969-0.4375-0.41797-0.10156-0.83984-0.15625-1.2656-0.15625-1.2617 0-2.2305 0.40625-2.9062 1.2188-0.67969 0.80469-1.0156 1.9531-1.0156 3.4531v7.0625h-4.8906v-15.312h4.8906v2.5156c0.625-1 1.3438-1.7266 2.1562-2.1875 0.82031-0.46875 1.8008-0.70312 2.9375-0.70312 0.16406 0 0.34375 0.011719 0.53125 0.03125 0.19531 0.011719 0.47656 0.039062 0.84375 0.078125z"></path>
  </symbol>
  <symbol id="a" overflow="visible">
   <path d="m17.641-7.7031v1.4062h-11.453c0.125 1.1484 0.53906 2.0078 1.25 2.5781 0.70703 0.57422 1.7031 0.85938 2.9844 0.85938 1.0312 0 2.082-0.14844 3.1562-0.45312 1.082-0.3125 2.1914-0.77344 3.3281-1.3906v3.7656c-1.1562 0.4375-2.3125 0.76562-3.4688 0.98438-1.1562 0.22656-2.3125 0.34375-3.4688 0.34375-2.7734 0-4.9297-0.70312-6.4688-2.1094-1.5312-1.4062-2.2969-3.3789-2.2969-5.9219 0-2.5 0.75391-4.4609 2.2656-5.8906 1.5078-1.4375 3.582-2.1562 6.2188-2.1562 2.4062 0 4.332 0.73047 5.7812 2.1875 1.4453 1.4492 2.1719 3.3828 2.1719 5.7969zm-5.0312-1.625c0-0.92578-0.27344-1.6719-0.8125-2.2344-0.54297-0.57031-1.25-0.85938-2.125-0.85938-0.94922 0-1.7188 0.26562-2.3125 0.79688s-0.96484 1.2969-1.1094 2.2969z"></path>
  </symbol>
  <symbol id="g" overflow="visible">
   <path d="m9.2188-6.8906c-1.0234 0-1.793 0.17188-2.3125 0.51562-0.51172 0.34375-0.76562 0.85547-0.76562 1.5312 0 0.625 0.20703 1.1172 0.625 1.4688 0.41406 0.34375 0.98828 0.51562 1.7188 0.51562 0.92578 0 1.7031-0.32812 2.3281-0.98438 0.63281-0.66406 0.95312-1.4922 0.95312-2.4844v-0.5625zm7.4688-1.8438v8.7344h-4.9219v-2.2656c-0.65625 0.92969-1.3984 1.6055-2.2188 2.0312-0.82422 0.41406-1.8242 0.625-3 0.625-1.5859 0-2.8711-0.45703-3.8594-1.375-0.99219-0.92578-1.4844-2.1289-1.4844-3.6094 0-1.7891 0.61328-3.1016 1.8438-3.9375 1.2383-0.84375 3.1797-1.2656 5.8281-1.2656h2.8906v-0.39062c0-0.76953-0.30859-1.332-0.92188-1.6875-0.61719-0.36328-1.5703-0.54688-2.8594-0.54688-1.0547 0-2.0312 0.10547-2.9375 0.3125-0.89844 0.21094-1.7305 0.52344-2.5 0.9375v-3.7344c1.0391-0.25 2.0859-0.44141 3.1406-0.57812 1.0625-0.13281 2.125-0.20312 3.1875-0.20312 2.7578 0 4.75 0.54688 5.9688 1.6406 1.2266 1.0859 1.8438 2.8555 1.8438 5.3125z"></path>
  </symbol>
  <symbol id="c" overflow="visible">
   <path d="m7.7031-19.656v4.3438h5.0469v3.5h-5.0469v6.5c0 0.71094 0.14062 1.1875 0.42188 1.4375s0.83594 0.375 1.6719 0.375h2.5156v3.5h-4.1875c-1.9375 0-3.3125-0.39844-4.125-1.2031-0.80469-0.8125-1.2031-2.1797-1.2031-4.1094v-6.5h-2.4219v-3.5h2.4219v-4.3438z"></path>
  </symbol>
  <symbol id="l" overflow="visible">
   <path d="m12.766-13.078v-8.2031h4.9219v21.281h-4.9219v-2.2188c-0.66797 0.90625-1.4062 1.5703-2.2188 1.9844s-1.7578 0.625-2.8281 0.625c-1.8867 0-3.4336-0.75-4.6406-2.25-1.2109-1.5-1.8125-3.4258-1.8125-5.7812 0-2.3633 0.60156-4.2969 1.8125-5.7969 1.207-1.5 2.7539-2.25 4.6406-2.25 1.0625 0 2 0.21484 2.8125 0.64062 0.82031 0.42969 1.5664 1.0859 2.2344 1.9688zm-3.2188 9.9219c1.0391 0 1.8359-0.37891 2.3906-1.1406 0.55078-0.76953 0.82812-1.8828 0.82812-3.3438 0-1.457-0.27734-2.5664-0.82812-3.3281-0.55469-0.76953-1.3516-1.1562-2.3906-1.1562-1.043 0-1.8398 0.38672-2.3906 1.1562-0.55469 0.76172-0.82812 1.8711-0.82812 3.3281 0 1.4609 0.27344 2.5742 0.82812 3.3438 0.55078 0.76172 1.3477 1.1406 2.3906 1.1406z"></path>
  </symbol>
  <symbol id="k" overflow="visible">
   <path d="m10.5-3.1562c1.0508 0 1.8516-0.37891 2.4062-1.1406 0.55078-0.76953 0.82812-1.8828 0.82812-3.3438 0-1.457-0.27734-2.5664-0.82812-3.3281-0.55469-0.76953-1.3555-1.1562-2.4062-1.1562-1.0547 0-1.8594 0.38672-2.4219 1.1562-0.55469 0.77344-0.82812 1.8828-0.82812 3.3281 0 1.4492 0.27344 2.5586 0.82812 3.3281 0.5625 0.77344 1.3672 1.1562 2.4219 1.1562zm-3.25-9.9219c0.67578-0.88281 1.4219-1.5391 2.2344-1.9688 0.82031-0.42578 1.7656-0.64062 2.8281-0.64062 1.8945 0 3.4453 0.75 4.6562 2.25 1.207 1.5 1.8125 3.4336 1.8125 5.7969 0 2.3555-0.60547 4.2812-1.8125 5.7812-1.2109 1.5-2.7617 2.25-4.6562 2.25-1.0625 0-2.0078-0.21094-2.8281-0.625-0.8125-0.42578-1.5586-1.0859-2.2344-1.9844v2.2188h-4.8906v-21.281h4.8906z"></path>
  </symbol>
  <symbol id="j" overflow="visible">
   <path d="m0.34375-15.312h4.8906l4.125 10.391 3.5-10.391h4.8906l-6.4375 16.766c-0.64844 1.6953-1.4023 2.8828-2.2656 3.5625-0.86719 0.6875-2 1.0312-3.4062 1.0312h-2.8438v-3.2188h1.5312c0.83203 0 1.4375-0.13672 1.8125-0.40625 0.38281-0.26172 0.67969-0.73047 0.89062-1.4062l0.14062-0.42188z"></path>
  </symbol>
  <symbol id="i" overflow="visible">
   <path d="m14.953-3.7188h-8.2188l-1.3125 3.7188h-5.2812l7.5625-20.406h6.2656l7.5625 20.406h-5.2812zm-6.9062-3.7812h5.5781l-2.7812-8.125z"></path>
  </symbol>
  <symbol id="x" overflow="visible">
   <path d="m0.42188-15.312h4.8906l3.8281 10.578 3.7969-10.578h4.9062l-6.0312 15.312h-5.375z"></path>
  </symbol>
  <symbol id="f" overflow="visible">
   <path d="m17.75-9.3281v9.3281h-4.9219v-7.1406c0-1.3203-0.03125-2.2344-0.09375-2.7344s-0.16797-0.86719-0.3125-1.1094c-0.1875-0.3125-0.44922-0.55469-0.78125-0.73438-0.32422-0.17578-0.69531-0.26562-1.1094-0.26562-1.0234 0-1.8242 0.39844-2.4062 1.1875-0.58594 0.78125-0.875 1.8711-0.875 3.2656v7.5312h-4.8906v-15.312h4.8906v2.2344c0.73828-0.88281 1.5195-1.5391 2.3438-1.9688 0.83203-0.42578 1.75-0.64062 2.75-0.64062 1.7695 0 3.1133 0.54688 4.0312 1.6406 0.91406 1.0859 1.375 2.6562 1.375 4.7188z"></path>
  </symbol>
  <symbol id="w" overflow="visible">
   <path d="m2.3594-15.312h4.8906v15.312h-4.8906zm0-5.9688h4.8906v4h-4.8906z"></path>
  </symbol>
  <symbol id="h" overflow="visible">
   <path d="m17.75-9.3281v9.3281h-4.9219v-7.1094c0-1.3438-0.03125-2.2656-0.09375-2.7656s-0.16797-0.86719-0.3125-1.1094c-0.1875-0.3125-0.44922-0.55469-0.78125-0.73438-0.32422-0.17578-0.69531-0.26562-1.1094-0.26562-1.0234 0-1.8242 0.39844-2.4062 1.1875-0.58594 0.78125-0.875 1.8711-0.875 3.2656v7.5312h-4.8906v-21.281h4.8906v8.2031c0.73828-0.88281 1.5195-1.5391 2.3438-1.9688 0.83203-0.42578 1.75-0.64062 2.75-0.64062 1.7695 0 3.1133 0.54688 4.0312 1.6406 0.91406 1.0859 1.375 2.6562 1.375 4.7188z"></path>
  </symbol>
  <symbol id="v" overflow="visible">
   <path d="m2.5781-20.406h5.25v7.4375l7.5938-7.4375h6.1094l-9.8281 9.6562 10.844 10.75h-6.5938l-8.125-8.0469v8.0469h-5.25z"></path>
  </symbol>
  <symbol id="e" overflow="visible">
   <path d="m2.3594-15.312h4.8906v15.312h-4.8906z"></path>
  </symbol>
  <symbol id="u" overflow="visible">
   <path d="m14.312-14.828v3.7188c-1.043-0.4375-2.0547-0.76562-3.0312-0.98438-0.98047-0.21875-1.9023-0.32812-2.7656-0.32812-0.92969 0-1.6211 0.11719-2.0781 0.34375-0.44922 0.23047-0.67188 0.58984-0.67188 1.0781 0 0.38672 0.17188 0.68359 0.51562 0.89062 0.34375 0.21094 0.95703 0.36719 1.8438 0.46875l0.85938 0.125c2.5078 0.32422 4.1953 0.85156 5.0625 1.5781 0.86328 0.73047 1.2969 1.8711 1.2969 3.4219 0 1.6367-0.60547 2.8672-1.8125 3.6875-1.1992 0.8125-2.9922 1.2188-5.375 1.2188-1.0234 0-2.0742-0.078125-3.1562-0.23438-1.0742-0.15625-2.1797-0.39453-3.3125-0.71875v-3.7188c0.96875 0.48047 1.9609 0.83984 2.9844 1.0781 1.0312 0.23047 2.0781 0.34375 3.1406 0.34375 0.95703 0 1.6758-0.12891 2.1562-0.39062 0.47656-0.26953 0.71875-0.66406 0.71875-1.1875 0-0.4375-0.16797-0.75781-0.5-0.96875-0.33594-0.21875-0.99609-0.38281-1.9844-0.5l-0.85938-0.10938c-2.1797-0.26953-3.7031-0.77344-4.5781-1.5156-0.875-0.73828-1.3125-1.8594-1.3125-3.3594 0-1.625 0.55078-2.8281 1.6562-3.6094 1.1133-0.78906 2.8203-1.1875 5.125-1.1875 0.89453 0 1.8359 0.074219 2.8281 0.21875 1 0.13672 2.082 0.35156 3.25 0.64062zm-5.0781 14.828c0.53125 0.5625 0.92188 1.082 1.1719 1.5625 0.25 0.48828 0.375 0.94531 0.375 1.375 0 0.86328-0.28125 1.5039-0.84375 1.9219-0.5625 0.41406-1.4219 0.625-2.5781 0.625-0.4375 0-0.89062-0.03125-1.3594-0.09375-0.46094-0.054687-0.92969-0.14062-1.4062-0.26562l-0.015625-2.0781c0.45703 0.14453 0.875 0.25 1.25 0.3125 0.38281 0.070313 0.72656 0.10938 1.0312 0.10938 0.51953 0 0.92578-0.10547 1.2188-0.3125 0.30078-0.21094 0.45312-0.49609 0.45312-0.85938 0-0.24219-0.10156-0.54688-0.29688-0.92188-0.1875-0.36719-0.49219-0.82422-0.90625-1.375z"></path>
  </symbol>
  <symbol id="t" overflow="visible">
   <path d="m2.3594-21.281h4.8906v11.594l5.625-5.625h5.6875l-7.4688 7.0312 8.0625 8.2812h-5.9375l-5.9688-6.3906v6.3906h-4.8906z"></path>
  </symbol>
  <symbol id="s" overflow="visible">
   <path d="m12.422-21.281v3.2188h-2.7031c-0.6875 0-1.1719 0.125-1.4531 0.375-0.27344 0.25-0.40625 0.6875-0.40625 1.3125v1.0625h4.1875v3.5h-4.1875v11.812h-4.8906v-11.812h-2.4375v-3.5h2.4375v-1.0625c0-1.6641 0.46094-2.8984 1.3906-3.7031 0.92578-0.80078 2.3672-1.2031 4.3281-1.2031z"></path>
  </symbol>
  <symbol id="d" overflow="visible">
   <path d="m9.6406-12.188c-1.0859 0-1.9141 0.39062-2.4844 1.1719-0.57422 0.78125-0.85938 1.9062-0.85938 3.375s0.28516 2.5938 0.85938 3.375c0.57031 0.77344 1.3984 1.1562 2.4844 1.1562 1.0625 0 1.875-0.38281 2.4375-1.1562 0.57031-0.78125 0.85938-1.9062 0.85938-3.375s-0.28906-2.5938-0.85938-3.375c-0.5625-0.78125-1.375-1.1719-2.4375-1.1719zm0-3.5c2.6328 0 4.6914 0.71484 6.1719 2.1406 1.4766 1.418 2.2188 3.3867 2.2188 5.9062 0 2.5117-0.74219 4.4805-2.2188 5.9062-1.4805 1.418-3.5391 2.125-6.1719 2.125-2.6484 0-4.7148-0.70703-6.2031-2.125-1.4922-1.4258-2.2344-3.3945-2.2344-5.9062 0-2.5195 0.74219-4.4883 2.2344-5.9062 1.4883-1.4258 3.5547-2.1406 6.2031-2.1406z"></path>
  </symbol>
  <symbol id="r" overflow="visible">
   <path d="m16.547-12.766c0.61328-0.94531 1.3477-1.6719 2.2031-2.1719 0.85156-0.5 1.7891-0.75 2.8125-0.75 1.7578 0 3.0977 0.54688 4.0156 1.6406 0.92578 1.0859 1.3906 2.6562 1.3906 4.7188v9.3281h-4.9219v-7.9844-0.35938c0.007813-0.13281 0.015625-0.32031 0.015625-0.5625 0-1.082-0.16406-1.8633-0.48438-2.3438-0.3125-0.48828-0.82422-0.73438-1.5312-0.73438-0.92969 0-1.6484 0.38672-2.1562 1.1562-0.51172 0.76172-0.77344 1.8672-0.78125 3.3125v7.5156h-4.9219v-7.9844c0-1.6953-0.14844-2.7852-0.4375-3.2656-0.29297-0.48828-0.8125-0.73438-1.5625-0.73438-0.9375 0-1.6641 0.38672-2.1719 1.1562-0.51172 0.76172-0.76562 1.8594-0.76562 3.2969v7.5312h-4.9219v-15.312h4.9219v2.2344c0.60156-0.86328 1.2891-1.5156 2.0625-1.9531 0.78125-0.4375 1.6406-0.65625 2.5781-0.65625 1.0625 0 2 0.25781 2.8125 0.76562 0.8125 0.51172 1.4258 1.2305 1.8438 2.1562z"></path>
  </symbol>
  <symbol id="q" overflow="visible">
   <path d="m2.5781-20.406h5.875l7.4219 14v-14h4.9844v20.406h-5.875l-7.4219-14v14h-4.9844z"></path>
  </symbol>
  <symbol id="p" overflow="visible">
   <path d="m2.1875-5.9688v-9.3438h4.9219v1.5312c0 0.83594-0.007813 1.875-0.015625 3.125-0.011719 1.25-0.015625 2.0859-0.015625 2.5 0 1.2422 0.03125 2.1328 0.09375 2.6719 0.070313 0.54297 0.17969 0.93359 0.32812 1.1719 0.20703 0.32422 0.47266 0.57422 0.79688 0.75 0.32031 0.16797 0.69141 0.25 1.1094 0.25 1.0195 0 1.8203-0.39062 2.4062-1.1719 0.58203-0.78125 0.875-1.8672 0.875-3.2656v-7.5625h4.8906v15.312h-4.8906v-2.2188c-0.74219 0.89844-1.5234 1.5586-2.3438 1.9844-0.82422 0.41406-1.7344 0.625-2.7344 0.625-1.7617 0-3.1055-0.53906-4.0312-1.625-0.92969-1.082-1.3906-2.6602-1.3906-4.7344z"></path>
  </symbol>
  <symbol id="o" overflow="visible">
   <path d="m2.5781-20.406h8.7344c2.5938 0 4.582 0.57812 5.9688 1.7344 1.3945 1.1484 2.0938 2.7891 2.0938 4.9219 0 2.1367-0.69922 3.7812-2.0938 4.9375-1.3867 1.1562-3.375 1.7344-5.9688 1.7344h-3.4844v7.0781h-5.25zm5.25 3.8125v5.7031h2.9219c1.0195 0 1.8047-0.25 2.3594-0.75 0.5625-0.5 0.84375-1.2031 0.84375-2.1094 0-0.91406-0.28125-1.6172-0.84375-2.1094-0.55469-0.48828-1.3398-0.73438-2.3594-0.73438z"></path>
  </symbol>
  <symbol id="n" overflow="visible">
   <path d="m2.3594-15.312h4.8906v15.031c0 2.0508-0.49609 3.6172-1.4844 4.7031-0.98047 1.082-2.4062 1.625-4.2812 1.625h-2.4219v-3.2188h0.85938c0.92578 0 1.5625-0.21094 1.9062-0.625 0.35156-0.41797 0.53125-1.2461 0.53125-2.4844zm0-5.9688h4.8906v4h-4.8906z"></path>
  </symbol>
  <symbol id="m" overflow="visible">
   <path d="m14.719-14.828v3.9844c-0.65625-0.45703-1.3242-0.79688-2-1.0156-0.66797-0.21875-1.3594-0.32812-2.0781-0.32812-1.3672 0-2.4336 0.40234-3.2031 1.2031-0.76172 0.79297-1.1406 1.9062-1.1406 3.3438 0 1.4297 0.37891 2.543 1.1406 3.3438 0.76953 0.79297 1.8359 1.1875 3.2031 1.1875 0.75781 0 1.4844-0.10938 2.1719-0.32812 0.6875-0.22656 1.3203-0.56641 1.9062-1.0156v4c-0.76172 0.28125-1.5391 0.48828-2.3281 0.625-0.78125 0.14453-1.5742 0.21875-2.375 0.21875-2.7617 0-4.9219-0.70703-6.4844-2.125-1.5547-1.4141-2.3281-3.3828-2.3281-5.9062 0-2.5312 0.77344-4.5039 2.3281-5.9219 1.5625-1.4141 3.7227-2.125 6.4844-2.125 0.80078 0 1.5938 0.074219 2.375 0.21875 0.78125 0.13672 1.5547 0.35156 2.3281 0.64062z"></path>
  </symbol>
 </defs>
 <g>
  <path d="m76.719 168v-1.6797l8.9609-4.4805v-1.1211l-2.2383-0.55859v-2.2383l2.2383-5.6016h3.9219l7.8398-2.2422 1.6797-6.1562 8.957-4.4805h6.7227l10.641-3.3633h2.2383l8.3984 5.043 12.32 2.8008 12.883-0.5625 7.8398 6.1602 2.8008 0.55859 3.3594-1.6797h2.7969l10.641 4.4805 6.7227-2.2383v-1.1211l-1.1211-2.8008 2.8008-2.2383h1.6797l0.55859 0.55859 0.5625 3.9219 6.1562 1.6797v-1.6797h1.6836l1.6797 1.6797v1.6797l-3.3633 3.3594-8.957 0.55859-6.1602 3.9219-8.4023 2.2383-2.7969 3.9219-2.8008 5.0391-0.5625 3.9219 3.9219 2.2383 3.3594 3.3594 2.8008 0.5625v2.2383l-1.6797 3.3594v2.8008l3.3594-0.55859 4.4805-7.2812 4.4805-2.8008 0.55859-3.918 6.7188-9.5195 6.1602-0.5625 2.8008 5.0391v1.6836l-0.55859 1.6797 3.918 0.55859 2.8008-3.9219h1.1211l1.1211 7.8398 3.918 8.9609v2.2422l-1.1211 2.2383-8.3984 3.9219-3.3594 0.55859-0.5625-1.1211h-6.7188l-8.9609 5.6016v1.1211h1.1211l5.6016-3.3633h5.0391v1.1211l-1.6797 1.6797v2.8008l3.918 1.6797-0.55859 2.2422-5.0391 1.1172-1.6797 1.1211v1.1211l-1.1211-0.5625v-1.1172l2.2383-1.1211v-2.2422l-4.4766 1.1211-6.1602 3.3594-2.2422 3.9219-5.0391 0.55859-4.4805 6.7227-1.6797 2.2383-1.6797 0.55859 0.55859-3.3594h-1.1211l-2.2383 7.2812-6.7188 5.0391-4.4805 5.0391-0.5625 5.043-1.1172 6.7188-0.5625 2.2383h-1.1172l-1.6797-3.918v-7.2812l-2.8008-1.1211h-3.9219l-3.3594 0.5625v2.2383l-2.8008 0.5625-3.3594-1.6797h-5.5977l-5.6016 5.0391-3.3594 6.7188-1.1211 7.2812 1.6797 4.4805 1.6797 2.7969h6.1602l2.8008-4.4766 7.2812-1.1211v2.2383l-5.043 8.9609-0.55859 1.6797 9.5195 0.55859-1.1211 8.4023v3.918l1.6836 1.1211 1.1172 2.2422 2.2422 1.1172 2.2383-1.1172 1.6797-0.5625 1.1211 0.5625 1.1211 1.1172 0.55859 1.1211h1.6797l1.6797-5.6016 2.8008-1.1172 3.3594-1.6797 2.2422-1.6797 1.1172 0.55859v1.1211l-1.6797 1.1172v1.6797l-0.55859 0.5625-0.55859 2.2383 1.1172 1.1211 2.2422-0.55859v-3.9219l1.1172-2.8008h1.6797l4.4805 3.9219 3.9219 0.55859 2.2383-0.55859 1.6797-0.5625 1.1211 0.5625 1.6797 2.8008 2.8008 2.2383 1.6797 2.2383 3.3594 3.3633 7.2812 1.1172 2.2383 2.8008 2.2422 2.8008 1.1211 3.918-0.5625 2.8008-1.1211 1.6797-1.1172 1.6797v1.1211h1.1172v-1.1211l2.8008-1.1172 0.5625-0.5625h2.2383v1.6797l-0.55859 1.1211-1.1211 0.55859h-1.1211v1.6836h2.2422l1.6797-1.6836 0.55859-2.2383h1.6797l1.6797 1.6797 2.2422 1.1211 5.5977 2.8008h4.4805l6.1602 3.918h2.2422l1.6797 8.4023-7.8398 10.078 1.1172 5.0391v5.043l-2.2383 7.8398-1.6797 5.5977-6.1602 2.2422-5.6016 3.3594-0.55859 8.3984-2.2422 6.1602-2.2383 5.6016-2.2383 3.3594h-1.6797l-4.4805-2.2422-2.2422-0.55859 5.0391 6.1602-1.6797 3.3594-1.6797 2.2422h-3.3594l-1.6797 1.1172v1.1211l0.55859 0.55859-0.55859 2.2422-2.8008 1.1211v1.6797l1.6797 2.2383-0.55859 3.9219-2.2383 3.918 4.4766 2.8008v2.2383l-1.1172 1.6797v4.4805l1.1172 3.3633-1.6797 2.2383v1.6797h-1.1172l-2.8008-1.6797-0.5625-2.2383-1.6797-0.5625-6.1602-10.641-1.1172-0.55859-1.1211-0.55859v-1.1211l1.6797-1.1211v-2.2383l-2.2383-7.2812-3.9219-2.2383-0.55859-2.2422v-2.8008l-1.1211-2.2383 0.55859-5.0391 0.5625-0.5625v-6.7188l-1.6797-2.2383v-7.2812l-0.5625-3.3594-0.55859-3.3594-0.55859-4.4805v-3.9219l-0.5625-3.3594-1.1211-3.9219-0.55859-1.6797-4.4805-3.3594-7.2773-7.2773-2.2422-3.9219-2.2383-2.8008-2.2422-4.4805-0.55859-1.6797-1.1211-3.3594-3.918-2.2383v-5.043l2.2383-2.2383v-1.1211h-1.6797v-3.3594l1.1211-5.5977 5.0391-5.043v-10.078l-0.55859-2.2422-1.1211-0.55859h-0.55859l-1.1211 0.55859-0.5625 2.2422h-2.2383l-3.3594-3.3594-3.9219-2.2422-1.1172-1.6797-0.5625-2.8008-1.1172-2.2383-1.1211-2.2422h-2.8008l-3.3594-2.7969-3.3594-2.2422-1.6797-2.2383-1.1211-1.1211-1.1211 1.1211-2.2383 1.1172-7.2812-4.4766-3.918-2.2422-3.3633-2.8008-1.6797-2.2383 0.5625-2.2422v-5.5977l-3.3633-6.7188-2.2383-5.6016-1.1211-4.4805v-9.5195h-1.1172l-0.5625 2.2383-1.1172 4.4805-0.5625 2.8008 1.1211 2.8008 3.3594 12.32v1.1211h-1.6797l-1.1211-3.3633-1.6797-2.7969-1.6797-3.9219-0.55859-2.2383 1.1172-3.3633-0.55859-2.2383-0.55859-3.3594-0.5625-2.2422v-3.3594l-3.3594-2.8008v-4.4766l1.1211-5.043 1.6797-5.5977 5.6016-9.5195 3.3594-6.1602 2.8008-3.3633h2.2383v1.1211l1.1211 0.5625v-2.2422l0.55859-4.4805-1.1211-2.8008 0.5625-3.3594 1.6797-6.1602 2.2383-5.0391 0.5625-2.8008v-1.1172h-0.5625l-1.6797 0.55859h-1.1211l-1.1172-2.2422-0.5625-1.6797-2.2383-0.55859-2.8008-1.6797-1.1211-1.1211h-1.1172l-1.1211 1.1211-2.2383 1.1211-1.1211 0.55859h-3.3594l-0.5625-0.55859 1.1211-1.1211 1.6797-0.55859 1.1211-1.1211 1.6797-1.1211v-1.1211h-1.1211l-3.3594 1.6836-12.879 6.7188-5.043 2.8008-2.2383 0.55859z"></path>
  <path d="m70 169.12v-1.6797l2.2383-0.5625 1.6836 0.5625 0.55859 1.1172-1.6797 0.5625z"></path>
  <path d="m108.64 187.04v-2.2383h2.2383l0.5625 1.6797 1.1172 1.6797v2.8008h-0.55859l-1.6797-1.6797v-2.2422z"></path>
  <path d="m173.04 208.88h1.1211l1.6797-2.8008 1.1211-0.55859 1.1172 1.1211h0.5625v-1.6797l-1.6797-2.8008-2.8008-0.55859-0.55859-1.1211-0.5625-2.8008-2.2383-2.2383-3.3594 0.55859-4.4805 2.2383v1.1211l1.6797 0.5625 2.8008-0.5625 2.2383 1.1211 2.2422 0.55859 0.55859 1.6797-5.0391 0.5625-1.6797 1.1172-1.1211 2.8008-1.6797 3.3594 0.55859 1.6797 2.8008-2.2383 0.55859-2.8008 2.2422-2.2383 1.6797-0.5625 2.2383 1.1211z"></path>
  <path d="m169.68 213.36v-1.1211l3.3594-0.55859 2.2422-0.55859 2.7969-1.1211 3.3633-0.55859 1.6797-1.1211h1.6797v1.1211l-2.2422 1.1172-4.4805 0.5625-1.1172 1.1172-4.4805 1.1211z"></path>
  <path d="m217.28 198.24 6.7188-5.0391 1.6797-0.55859 0.55859 1.1211-1.1172 2.7969 1.1172 1.6797 0.5625 3.3633-0.5625 2.7969-2.7969-1.6797-2.2422-1.1172h-2.8008l-1.1172-2.2422z"></path>
  <path d="m253.68 120.4v1.1211l-5.0391 3.3594h-5.0391l-5.6016 2.2422-5.6016 5.5977-2.7969 0.5625h-3.9219l-1.6797-1.6797v-1.1211l2.8008-2.8008 4.4805-2.2383 4.4805-1.1211v-1.1211l-3.3633-0.55859-5.0391 0.55859-2.8008-0.55859v-1.1211l3.9219-1.1211 3.918-1.1172h5.043l2.7969 1.6797h7.2812l4.4805-0.5625z"></path>
  <path d="m196 162.4-1.1211-1.1172v-1.1211l3.9219-2.8008h2.2383l0.5625 0.5625v2.7969l1.1172 0.5625v1.6797h-1.1172l-1.1211-1.6797h-1.6797l-1.1211 0.55859v1.1211z"></path>
  <path d="m165.2 141.12h3.9219l2.8008-2.8008 6.1562-1.6797v-1.1211l-3.918-2.2383-3.3594 1.1172-3.3594 3.3633-3.3633 2.2383z"></path>
  <path d="m183.68 133.28v2.7969h6.7188l2.8008-0.55859 1.6797-2.2383-0.55859-2.2422-1.6797-0.55859-1.6797 2.8008h-0.5625l-0.55859-0.5625-1.6797-1.6797-1.6797 0.5625z"></path>
  <path d="m171.92 142.8v-1.1211l4.4766-2.8008 3.3633-0.55859 4.4766 2.2383 2.8008 0.5625v1.6797l-1.6797 1.6797 0.5625 0.55859 0.55859 1.6797h-0.55859l-2.2422 0.5625-1.6797 1.1172-3.3594-1.1172h-8.4023l-2.2383-1.6797v-1.1211l3.9219-0.55859 2.2383 0.55859v-1.1211l-1.6797-0.55859"></path>
  <path d="m191.52 139.44 3.9219-2.2422 3.918 1.1211v1.6797l-1.1211 1.6797-2.2383 2.2422h-2.8008l-1.6797-1.6836z"></path>
  <path d="m200.48 140.56v2.2422h1.6797l2.8008-1.1211 2.8008-1.6797v-1.6797h-3.3633l-2.2383 0.55859z"></path>
  <path d="m200.48 133.28 0.55859 3.3594h1.1211l2.8008-1.6797v-1.6797l-1.1211-1.1211h-3.3594z"></path>
  <path d="m208.88 132.72 1.1211 3.3594 5.0391 1.6836h8.9609l-0.55859-2.2422h-8.9609l-2.8008-3.3594z"></path>
  <path d="m206.64 146.16-0.5625-2.8008 5.6016-3.918h5.6016v1.6797l1.1172 1.6797 4.4805-0.5625 1.6797 1.6836 3.3633 2.2383 2.2383 2.2383-0.55859 1.6797-1.1211 1.6836v0.55859l5.5977 3.3594-0.55859 1.6797-5.5977 3.3594-1.6836-1.1172-1.1172-1.6797h-1.1211v3.3594l-2.8008 5.5977-1.1211 0.5625-2.2383-1.6797-4.4805-4.4805h-5.5977l-1.1211-1.1211 2.8008-2.2383h4.4805l5.5977-6.1602 1.6797-1.6836-0.55859-1.6797-5.6016-0.55859-5.0391-0.55859z"></path>
  <path d="m152.32 260.4v-0.55859l2.2383-1.6797 7.8398 0.55859 8.9609 6.1602v1.6797h-6.7188l0.55859-1.6797-1.1211-0.55859-1.6797-1.6797-1.6797-2.2422z"></path>
  <path d="m162.4 269.36h3.3633l-0.5625 1.6797h-1.6797l-1.1211-0.55859z"></path>
  <path d="m169.68 269.92v0.55859h2.8008l2.8008 0.55859 0.55859 0.5625 2.2383-1.1211 3.9219-0.55859v-1.1211h-2.2383l-2.2422-2.2422-3.3594 0.5625h-1.1211v2.2383h-2.8008"></path>
  <path d="m185.36 269.92h1.6797l1.1211 1.1172-2.8008 0.5625-1.1211-0.5625z"></path>
  <path d="m192.64 273.84 1.1211 2.8008 1.6797-0.5625v-1.6797l-1.1211-0.55859h-1.6797"></path>
  <path d="m193.76 277.2h1.1172l0.5625 3.9219h-1.6797z"></path>
  <path d="m280.56 118.16 15.121 0.55859v1.1211l-1.6797 0.55859-2.8008 1.1211v0.55859l1.6797 1.1211 2.2422 1.1211 2.2383 1.1211 2.2422-0.5625 2.2383-1.1172h3.9219l2.7969 0.55859v1.1211l-1.6797 0.55859-3.918 1.6797-1.1211 1.1211-3.918 2.2383-3.9219 3.3594v2.8008l3.3594 2.2422v0.55859l-2.2383 3.3594-1.6797 1.6797h-1.6797l-1.1211-0.55859-1.6797 0.55859v1.6797l2.2383 2.2422v1.1172h-2.2383l-1.1211-1.1172h-1.1211v1.6797l2.8008 1.1211h1.6797l-0.55859 2.2383h-5.0391l-7.2812 1.1211-7.8398 3.3594-6.7188 2.2383-9.5234 11.762-2.2383 1.1211-2.8008-2.8008-3.3594-2.2422v-8.3984l4.4805-6.1602 3.3594-5.6016-2.2383-4.4766-1.1211-6.1602-3.9219-2.8008h-5.0391l-0.55859-2.8008 2.2383-1.6797 1.1211 0.55859h3.3594l1.1211-1.1172v-2.2422l17.359-7.2812h2.8008l2.8008 1.6797 6.7188-0.55859z"></path>
  <path d="m285.6 160.72 1.6797-1.6797h1.1172l1.6797 2.2422h1.1211l2.2422-1.1211 3.918-0.55859 1.6797 1.6797-0.55859 2.7969-3.3594 2.2422-5.043-0.55859-2.7969-0.5625v-1.6797l-1.1211-0.55859z"></path>
  <path d="m300.16 194.88 1.1211-2.2383-1.1211-0.5625 1.1211-1.6797 1.6797-3.3594 2.8008-1.1172h1.6797l1.6797 0.55859-1.6797 2.8008-1.1211 2.7969-2.2422 2.8008h-1.1172l-0.5625-0.55859-1.1172 0.55859z"></path>
  <path d="m314.16 177.52v0.55859l-1.1211 1.1211 1.6797 0.5625 1.1211 1.6797-1.6797 1.1172v1.1211l1.1211 2.2422 1.1172 2.7969 1.6797 2.8008h2.2422v1.6797l-1.6797 2.2422-3.3594 0.55859-4.4805 1.1211-3.3594 0.55859 0.55859-1.1211 2.2383-1.1172v-1.1211l-0.55859-0.55859 1.1211-2.8008 2.2383-1.6797v-2.2422l-1.6797-0.55859-2.2383-2.8008v-3.3594l1.6797-2.8008z"></path>
  <path d="m300.16 227.36v-14l2.8008-0.55859h3.3594l3.918 1.1211h1.6836l2.2383-1.1211-0.55859-1.6797 1.1172-1.6797-0.55859-3.3633-2.2383-1.6797-2.2422-1.1172-0.55859-0.5625v-1.6797h3.3594l0.55859-1.6797-0.55859-0.55859 1.6797-0.5625 0.55859 1.6836h2.2422l3.918-4.4805 1.6797-0.5625 1.1211-1.6797 1.1211-0.55859 0.55859 1.6797 0.5625-0.55859v-3.3633l2.2383-0.55859 2.8008-0.55859 0.55859-2.2422v-3.918l-0.55859-1.6797 1.6797-1.1211 1.6797-0.55859 0.55859 1.6797v2.7969l-1.1172 1.1211v1.6797l1.6797 0.5625 2.7969 0.55859h1.6836l2.7969-1.1211h4.4805l1.6797 0.5625 1.1211-0.5625 0.55859-2.8008 1.1211-2.7969 1.1211-1.1211h1.1211l0.55859 0.55859 1.6797-0.55859v-1.6797l-0.55859-2.2422 3.918-0.55859h1.6797l2.2422-1.1211-1.1211-1.1172-0.55859-0.5625-1.6836 0.5625-1.6797 0.55859-2.2383 0.55859h-2.2383l-2.8008-5.5977v-1.6797l2.2383-2.2422 1.6797-1.6797v-2.8008h-0.55859l-1.6797-0.55859-1.6797 1.6797-2.2422 2.2383v1.6836l-2.2383 1.1172-1.6797 3.9219 1.1172 2.8008v1.6797l-1.6797 2.7969-1.1172 2.8008v1.6797l-1.1211 1.1211-1.1211 0.55859-0.55859 1.1211h-2.2422v-2.2383l-1.1172-1.6797-1.1211-1.1211v-2.8008l-0.55859 0.55859v-1.6797l-2.2422 1.1211h-0.55859l-1.1211 1.1211h-2.2383l-1.1211-1.6797v-5.6016l2.8008-2.2383 2.2383-2.2422 5.0391-5.0391 3.9219-3.3594 5.0391-5.0391 7.8398-5.043h3.9219l3.3594 1.1211 1.6797 1.1211 5.6016 2.2383 5.0391 3.3594h1.1211l1.1172 1.1211 0.5625 0.5625v1.6797l-0.5625 1.1172h-2.2383l-2.8008-1.1172-2.2383-0.5625-2.2422-1.1172v2.2383l1.1211 1.1211 2.2383 1.1172 2.8008 2.8008h1.6797l3.9219-3.3594 1.1172-0.55859 1.6836-1.6797 0.55859 1.1172h1.6797v-2.2383l-1.1211-0.55859v-1.6836l-1.1172-0.55859v-2.2383h1.1172l2.2422 1.6797v2.2383h1.1172l3.3633-1.1211 4.4766-1.6797 3.3633-1.1172 5.0391-1.1211 5.5977-0.55859 2.8008 1.6797h2.2422v-1.6797l-1.6797-2.2422-1.6797-0.55859v-1.6797l3.3594-3.3594 0.55859-0.5625 2.2383-0.55859 0.5625 1.1211v2.2383l5.0391 6.7188v2.8008l-1.6797 0.55859-1.1211 1.6836h2.8008l1.6797-1.6836 0.5625-3.3594h3.3594v-1.1172l-3.9219-1.1211-2.8008-2.2422-1.1172-2.7969 6.1602-3.9219 2.7969-2.2383 3.3633-2.8008 8.957-2.8008 3.3594-0.55859h14l2.2422 0.55859-0.55859 2.2383-2.8008 3.9219 1.1172 0.55859 5.043-2.7969h6.1602l20.16 3.3594 2.2383 0.55859 5.0391-0.55859 0.5625-2.2422 1.1172-1.6797 3.3633 0.5625 8.3984 1.6797h7.8398l5.6016-0.5625 6.1602 2.2422h5.0391l6.1602-2.8008h5.0391l12.32 1.1211 7.8398 2.7969 5.0391 1.1211 2.2422 1.6797v1.1211h-2.2422l-2.2383-0.55859h-3.3594l-1.1211-0.5625-1.1211 0.5625v2.7969l3.3594 1.1211 2.8008 1.1211 1.6797 0.55859-0.55859 1.6797-3.3594 5.043v1.1172l-4.4805 0.5625-2.8008 1.1172 1.6797 2.2422 3.9219 3.918 3.3594 5.6016 1.6797 5.5977v3.3633h-1.1211l-2.2383-2.8008-3.3594-3.3594-5.043-4.4805-3.3594-2.2422v-2.7969l1.6797-2.2422-0.55859-3.3594-1.6797-2.8008-1.1211-0.55859-1.1211 1.6797h-0.55859l-1.1211-0.55859h-2.2383v2.7969l1.1211 2.8008-2.2422 1.6797-3.918 0.5625-3.3633 0.55859h-3.918l-3.3594 1.1211-0.5625 1.1172v7.2812l2.8008 2.8008h1.1211l0.55859-0.5625h2.2422l2.2383 1.6836 3.9219 4.4766 2.2383 4.4805 1.6797 4.4805 1.1211 5.6016 0.55859 5.5977-5.5977 1.6797-0.5625 4.4805-0.55859 3.9219 2.2383 3.3594 2.8008 4.4805 0.5625 1.1211v1.6797l-1.6836 1.1172-1.6797 1.1211-0.55859-1.6797-1.6797-3.3594-1.6797-2.8008-2.2422-1.6797-3.3594-3.3594h-0.55859l-2.2422 2.2383-1.6797-0.55859v-2.2383l0.5625-1.1211h-2.2422l-3.3594 3.3594v1.6797l2.2422 2.2383h4.4766l2.2422 1.1211-0.55859 1.1211-1.1211 0.55859v2.8008l4.4805 6.7188 2.2383 4.4805-1.6797 0.5625 1.6797 1.1172 1.1211 1.6797v7.8398l-2.2422 2.8008-5.5977 5.6016-5.0391 3.3594-1.6836 2.8008h-1.1172l-1.1211-1.6797-1.1211-1.1211-2.2383 1.1211-2.2422 5.5977 0.5625 2.2422 4.4805 3.918 3.3594 3.9219 0.55859 6.7188-1.6797 2.8008-1.6797 2.2383-2.2383 1.6797-0.5625 1.6836h-1.6797v-1.6836l-1.1211-1.6797-1.1172-1.1172-2.2422-1.6797v-2.2422l-1.6797-0.55859-1.6797-1.1211-0.55859-1.1211h-2.2422l1.1211 5.6016v4.4805l1.6797 3.918 2.2422 3.3633 2.2383 3.3594 1.6797 3.3594 1.1211 2.2383-0.5625 1.6797h-1.6797l-1.6797-1.6797h-1.1172l-3.3633-7.2773-1.6797-2.8008-2.7969-2.8008v-7.8398l-0.5625-5.0391-1.6797-4.4805-1.6797-5.0391-1.1211 0.55859-1.6797 1.6797-1.6797 0.55859-1.6797-0.55859 0.55859-4.4805-3.3594-4.4805-2.2383-1.6797v-1.6797l-0.5625-2.8008h-2.2383l-2.2383 2.8008-1.6836-0.55859-0.55859-1.1211-1.6797 1.1211-2.2383 3.918-2.8008 3.9219-2.2422 2.8008-3.3594 5.0391-1.6797 7.2812-0.55859 4.4766-1.6797 6.1602h-1.1211l-1.6797-0.55859-1.6797-5.0391-2.8008-4.4805-3.9219-9.5195-1.6797-6.7227-0.55859-6.7188h-1.6797l-0.55859 3.3594-1.1211 0.5625-1.6797-1.1211-3.3594-3.3594-1.1211-1.6797-0.55859-2.2422-2.8008-2.2383h-12.883l-2.2383-0.5625-2.8008-1.1172v-2.2422l-1.1172-1.1172-2.8008 0.55859-1.1211 1.1211h-3.3594l-1.6797-1.6797-3.3594-3.3633-2.2422-2.2383h-2.2383l-1.1211 1.6797v1.1211l2.8008 2.2383 1.1211 2.2422 1.1172 0.55859 0.5625 1.6797h1.1172l1.6797-0.55859 0.5625 1.1172v2.8008h1.6797l2.8008 0.5625 1.1172-1.6797 1.1211-2.2422h2.2422v2.8008l0.55859 1.6797 1.6797 0.55859 2.2383 0.5625 1.1211 0.55859 0.55859 1.1211-2.2383 6.1602-2.8008 3.918-2.8008 2.8008-2.2383 1.1211-3.3594 2.2383-2.8008 2.8008-2.8008 1.6797-7.2773 1.6797-2.2422 0.5625-2.2383-3.3633-1.1211-1.6797-1.1211-6.7188-5.0391-7.2812-8.3984-12.879-1.6797-5.6016-1.1211 1.1211-0.5625-0.55859-0.55859-0.5625h-1.6797v2.2422l1.6797 3.3594 3.9219 7.2812 3.3594 5.5977v3.9219l4.4805 4.4805 1.1172 4.4805 1.1211 0.55859 2.8008 3.3594 3.3594 3.3594-0.55859 3.9219 2.2383 0.55859 3.9219-1.1211 6.7188-2.2383 3.3594-0.55859v1.6797l-6.1602 15.117-5.0391 7.2812-6.7188 6.7188-5.043 6.1602v7.2812l2.2422 14.559v3.9219l-4.4805 4.4805-4.4805 3.918-3.918 3.3594 1.1172 5.043v5.0391l-5.0391 3.3594v1.6797l-3.3594 6.7227-5.0391 6.1562-3.9219 2.8008-3.918 0.5625-5.6016 1.1172-2.2383 2.2422-1.6836-0.5625-0.55859-1.1172-2.8008-1.6797-0.55859-5.6016-5.0391-8.9609-1.1211-7.8398-0.55859-3.918-3.9219-8.9609v-8.9609l3.9219-7.2773-1.6797-10.082-3.3633-6.7188-5.0391-7.8398 0.55859-4.4805 1.6836-3.3594v-2.8008h-6.1602l-3.3633-5.0391h-3.918l-7.8398 2.2383-10.082 3.3594-3.918-0.55859-8.9609-9.5195-6.1602-7.8398-2.2383-4.4805v-5.0391l1.6797-5.6016v-5.6016l0.55859-3.918 5.0391-10.641 2.8008-2.8008h1.6797l3.9219-5.0391 1.1211-3.9219 0.55859-1.6797 3.3594-2.2383 1.1211-1.6797 2.2383-3.3594h1.6797l1.6797 1.1172h2.2422l6.1602-2.2383 5.0391-1.1211 2.8008-0.55859 2.8008-1.1211h3.918l5.0391 0.5625-0.55859 2.2383-1.1211 3.3594 0.5625 1.1211 2.2383 1.6797 2.2422 1.1211 3.3594 0.55859h1.1172l0.5625 2.8008 2.8008 1.1211 3.918 1.1172h1.6797v-1.6797h-0.55859v-1.6797l2.2383-1.6797 3.3594-0.55859 1.6797 1.6797 2.2422 1.6797 3.3594 1.6797h2.8008l2.2383-1.1211 2.8008-0.55859h1.6797l1.6797 0.55859 1.1211 0.5625 1.1211-2.2422 0.55859-2.2383 1.1211-2.8008v-4.4805l0.55859-0.55859v-1.1211l-3.918 0.55859h-6.1602l-3.9219 0.5625-1.1211-1.6797-1.1172-3.3633-1.1211-3.3594h2.2383l1.1211-1.6797 0.5625-0.55859h3.918l1.1211-1.1211 1.6797-1.1211 1.1211-1.1172h2.7969l1.6797 1.1172 2.2422 0.5625 1.6797 0.55859h5.6016v-2.2383l0.55859-1.1211-1.1211-0.55859h-1.6797l-1.1211-1.6836-1.1172-1.1172-2.2422-1.1211-1.1172-1.1211v-1.6797l1.6797-1.1211 1.1172-1.1172v-0.5625l-1.1172-0.55859-1.1211 0.55859-4.4805 2.2422 1.1211 1.1211v1.6797l-1.6797 1.1172h-1.6797l-1.1211-1.6797-1.1211-2.8008-0.55859-1.1172-1.1211 0.55859-2.8008 1.1211-1.1172 3.918-1.6836 2.8008v2.8008l1.1211 1.6797-2.8008 2.2383h-1.1172l-1.6797-1.1172-2.8008 0.55859-0.5625 1.6797v7.8398l-2.7969 0.5625-1.6797-1.6797v-2.8008l1.6797-0.5625-2.2422-0.55859-1.1211-2.2383-1.1172-2.8008-1.6797-2.8008-2.2422-1.1211-3.3594-3.3594-2.2383-0.55859-1.1211-1.1211-0.55859-1.1211h-1.1211l-0.5625 1.6797 1.1211 1.1211 1.1211 1.6797 0.55859 1.1211 2.2422 1.6797 1.6797 0.55859v1.1211l2.8008 1.6797 1.1172 1.6797 0.5625 1.6797h-0.5625l-1.1172-1.1172h-0.5625v3.3594l-0.55859 1.1172h-1.1211v-2.7969l-1.6797-1.6797-1.6797-2.2422-1.6797-1.1211h-2.2422l-1.6797-1.1172-1.6797-3.3594-1.1172-1.6836-1.1211-1.1172-1.6797 0.55859-2.2422 2.8008-2.2383 0.55859-1.1211-1.1172-2.2383 1.1172-0.5625 1.6797-5.5977 4.4805-2.2422 5.0391-2.2383 3.9219h-1.6797l-1.6797-1.1211-1.6797 0.5625-2.2422 0.55859-2.2383-1.1211-1.6797-0.55859z"></path>
  <path d="m332.64 213.36-1.6797 1.6797 0.55859 2.2422v0.55859h1.1211l0.55859-0.55859v-2.2422z"></path>
  <path d="m330.96 220.08 0.55859-0.55859 1.6797-0.55859v0.55859l-0.55859 1.6797 0.55859 0.5625-0.55859 1.6797h-1.1211l-0.55859-0.5625z"></path>
  <path d="m338.8 225.68v1.1211l2.2383 1.1211 1.6797 1.1172h1.6797l0.5625-2.2383-1.1211-1.1211z"></path>
  <path d="m358.4 232.4v-1.1172l2.2422 1.1172 3.3594-0.55859 0.55859 1.1211-2.2383 0.55859-1.1211-0.55859-1.1211-0.5625z"></path>
  <path d="m375.2 232.96 1.1211-1.6797 3.3594-0.5625v1.1211l-1.1211 1.1211-1.6797 1.1172h-1.1172z"></path>
  <path d="m390.88 142.8-1.1172 4.4805 4.4766 1.1172 1.1211 0.5625h3.3594v-1.1211l-2.7969-0.55859-0.5625-0.5625-0.55859-3.918z"></path>
  <path d="m392 141.68h3.3594l1.6797-1.6797h0.5625l1.6797-1.1211h2.2383l3.3594-2.8008v-2.7969h-0.55859l-3.9219 3.3594h-1.6797l-2.7969-0.5625-1.1211 1.6836-1.1211 1.6797h-1.1211z"></path>
  <path d="m543.2 178.08v-1.1172h1.6797l1.1211 1.1172 1.6797 2.8008 2.2422 2.2422h1.1172l3.3594 3.918 1.6797 1.1211v0.55859l-0.55859 1.1211 1.1211 2.8008 1.6797 1.1211 1.1211 1.1172v1.1211h-1.1211v0.55859h-1.1211l-1.1211-2.7969-1.6797-1.6836-1.6797-1.6797-2.7969-3.3594-2.8008-2.8008-2.2422-4.4766z"></path>
  <path d="m558.88 200.48v-1.1211l1.6797-0.55859 1.6797 0.55859h3.3633l1.1172 0.5625 1.6797 1.6797v1.6797l-1.6797 1.1172v1.1211h-1.6797l-1.1172-0.55859h-1.1211v2.2383h-1.6797l-1.1211-1.6797-0.55859-1.1211 0.55859-1.1172 0.55859-1.1211z"></path>
  <path d="m562.24 208.32h1.6836l2.2383 1.6797 1.6797 3.3594 1.6797 4.4805 0.55859 2.2383-0.55859 3.9219-2.2383 0.55859-1.6797-1.6797h-3.3633l-2.7969 1.6797v2.8008l-1.6797 1.1211-2.2422-0.55859v-1.1211l1.6797-2.2422 4.4805-3.3594v-2.8008h1.1211l1.6797 0.5625 1.1211-2.8008-1.6797-1.6797-1.1211-3.3594z"></path>
  <path d="m554.96 231.28h1.6797v1.1172l0.55859 1.6797 1.1211 1.1211h1.1211l1.1172-1.6797-1.1172-1.6797-1.6797-2.8008h-1.6836l-1.1172 0.5625v1.1172"></path>
  <path d="m560.56 226.8h2.2422l1.1211-0.5625 1.6797-1.6797-1.1211-0.55859-2.2422 0.55859-1.1172 0.5625z"></path>
  <path d="m492.24 180.32 1.1211-0.55859 0.5625 0.55859v4.4805l-1.1211 2.2383-1.1211 1.6797h-1.6797v-1.1172l1.6797-1.6797 1.1211-2.2422z"></path>
  <path d="m408.8 207.76h-1.1211v1.1172l-1.1211 0.5625-1.1172 1.1172v0.5625l1.6797 1.1172 2.2383 3.3633v3.3594l1.6797 1.6797 1.6797 2.2383 0.5625 2.8008 1.1172 1.1211v1.1211l-1.6797 1.1172h-1.6797l-3.918-2.2383-2.2422-0.5625v-3.3594l1.1211-3.3594-2.8008-3.3594-4.4805-4.4805v-3.3594l3.3594-2.2422 3.9219-1.1172 1.6797-0.5625h1.6797l0.5625 1.1211v1.1211z"></path>
  <path d="m421.12 203.84h2.8008v0.55859l0.55859 3.9219-1.1211 2.2383-1.6797 0.5625h-1.6797l-1.1211-2.2422 0.5625-2.8008 1.1172-1.1172z"></path>
  <path d="m444.08 204.4-1.1172 0.5625 0.55859 1.1172h0.55859l1.1211 1.1211h0.5625l0.55859-1.1211v-1.1172h2.8008l2.2383-0.5625 2.2422-0.55859v-1.1211h-1.6797l-0.5625 0.5625h-1.1211l-1.6797-0.5625-1.1172-0.55859h-1.1211l-1.1211 1.1211z"></path>
  <path d="m378 313.6 2.8008-1.1211h1.1211l1.6797 0.55859v1.1211l-1.1211 1.1211-1.1211 1.6797v2.8008h-1.6797l-2.2383-1.6836z"></path>
  <path d="m372.96 323.68v5.0391l1.6797 3.3594h1.1211v-2.2383l-1.1211-2.8008v-2.2383l-0.5625-1.1211z"></path>
  <path d="m380.8 336h1.1211v2.2383l0.55859 4.4805 0.55859 3.9219-1.1172-0.5625-0.5625-1.1172v-6.1602z"></path>
  <path d="m400.4 359.52 0.5625-2.8008-1.1211-0.55859 1.1211-3.9219 3.3594-2.7969 1.6797-1.1211 1.6797-2.8008 3.9219-3.918 1.1172-0.5625v10.082l-3.918 10.641-2.8008 8.957-3.9219 1.6797h-2.2383l-1.6797-3.918v-3.3594z"></path>
  <path d="m421.68 361.2v1.6797l1.6797 0.5625h1.1211v-1.1211l-1.1211-1.1211z"></path>
  <path d="m426.72 358.96h1.1211v1.6797l-0.55859 0.55859h-1.1211z"></path>
  <path d="m546 250.32 1.6797-0.55859 0.55859 2.7969v1.6797l1.1211 3.9219h-1.6797l-1.6797-1.6797-1.1211-2.8008z"></path>
  <path d="m548.24 266.56 2.8008-0.55859 2.2422 2.8008-1.1211 3.3594 1.1211 3.918 2.7969 1.1211 2.8008 2.2422 0.5625 1.1172h-1.6797l-2.8008-2.2383h-3.3594l-2.8008-3.9219-0.5625-2.2383 1.1211-1.1211-0.55859-2.8008z"></path>
  <path d="m473.2 290.08 2.2422 3.3633 2.2383 2.2383-1.1211 2.8008-3.3594 1.1211-1.6797-2.8008 0.55859-3.3594 0.5625-2.8008z"></path>
  <path d="m505.12 300.16 6.7188 5.6016 6.1602 6.7188 4.4805 4.4805 2.2383 2.8008-0.55859 3.3594v2.2383l-2.2383 0.5625-5.043-4.4805-5.0391-8.4023-3.918-5.5977-3.3633-4.4805h-1.1172l-0.5625-2.2422z"></path>
  <path d="m521.92 329.28 1.1172-1.6797 3.3594-1.1211 2.2422 1.1211 5.0391 0.55859 3.3594 1.1211 3.3594 2.7969 0.5625 2.8008-2.2422-0.55859-1.6797-1.1211h-3.3594l-2.8008-1.1211-5.0391-1.1172-1.6797-1.6797z"></path>
  <path d="m551.04 285.6-0.55859 2.2383-1.6797 2.8008h-1.1211v-2.2422l1.1211-1.6797 0.55859-1.1172 1.1211-0.5625"></path>
  <path d="m555.52 283.36h2.2422v1.1211l-1.1211 1.6797-1.6797 0.55859v-1.6797z"></path>
  <path d="m553.28 292.32 1.1172-1.6797 1.1211-0.5625h0.55859l1.1211-0.55859 0.5625-1.6797h1.6797l0.55859 1.6797 1.1211 1.6797-2.8008 3.9219h-2.2422v-2.2422l-0.55859-0.55859z"></path>
  <path d="m547.12 296.8 1.1172 1.1211 1.1211 1.1172 1.1211 1.6797-2.2422 1.6797-0.55859 3.3633 1.6797 1.6797 0.5625 2.7969-2.2422 2.2422-1.6797 5.0391-2.2383 4.4805-1.1211 0.55859h-2.2422l-6.7188-2.7969-1.6797-4.4805-0.55859-3.9219v-2.2383h1.1172l5.6016-3.9219 3.3594-3.918 1.6797-2.8008 0.5625-2.2422z"></path>
  <path d="m569.52 306.88 0.55859 1.6797v3.3633l-0.55859 1.6797h-1.1211l-1.1172-1.6797v-1.6836l0.55859-2.2383 1.1211-1.1211z"></path>
  <path d="m561.68 309.68h1.1211v0.55859l-1.1211 1.1211-2.2383 0.5625h-5.043l-0.55859 4.4766 2.2383-1.6797 2.2422-1.1172 1.6797 0.55859v1.1211h-1.1211l-2.8008 1.6797v1.6797l1.6836 2.8008 0.55859 1.6797-1.1211 1.6797-2.2383 0.55859v-1.6797l-0.5625-3.918h-1.1172l-0.5625 2.2383 0.5625 3.9219v0.55859h-2.2422v-3.3594l-0.55859-2.2422v-3.918l1.6797-5.6016 1.1211-1.6797h2.7969l0.5625 1.1211h2.8008z"></path>
  <path d="m543.2 334.88 1.1211-1.1172 1.1211-1.1211h3.3594v1.1211l-1.1211 1.1172z"></path>
  <path d="m551.04 333.76v1.1172l1.1211 0.5625h2.8008l2.8008-1.6797v-1.6836h-1.1211l-1.6797 1.1211z"></path>
  <path d="m558.32 336.56v1.6797h1.6797l1.6797-1.1172 3.3594-1.6797 0.5625-0.5625v-1.1172h-1.1211l-2.8008 1.1172h-1.6797v1.1211z"></path>
  <path d="m568.96 319.76h2.2383l2.2422 1.1172v1.1211h-2.8008l-1.6797-0.55859z"></path>
  <path d="m574.56 315.84 2.2422 5.0391 2.8008 0.5625 3.918 2.7969 3.3594 2.2422 0.5625 1.6797v3.918l3.3594 2.8008 3.3594 0.5625 2.2383 1.1172 2.8008-3.3594 1.1211-0.55859 2.8008 3.3594 1.1172 2.8008 2.8008 1.1211h2.8008l0.55859-1.6836-2.7969-3.918-1.6797-2.2422-0.5625-1.6797 0.5625-1.6797-4.4805-3.918-4.4805-2.8008-2.8008-1.1211-3.3594-1.6797-4.4805-1.1211-2.8008 2.2422h-2.2383v-3.3594l-0.5625-1.1211-2.2383-0.55859-1.1211-0.5625h-1.1211z"></path>
  <path d="m607.6 329.28h5.5977l1.6797-2.2422v-3.918l-1.1172 0.55859-0.5625 1.1211-0.55859 1.6797v0.55859h-0.5625l-1.1172-0.55859h-1.1211v0.55859l-1.1211 0.5625-1.1172 0.55859z"></path>
  <path d="m594.72 339.92h1.1211l0.55859 10.078 0.5625 8.9609 4.4805 10.078 2.2383 12.32-3.3594 7.2812-6.7188 11.199-8.9609 8.9609-1.6797 1.1211-2.8008 0.55859-2.2383 1.6797-1.6836 1.1211-1.6797-0.5625v-1.1172h-2.2383l-1.1211 1.6797-1.6797-1.1211-2.2383-3.3594-0.5625-3.9219-1.1172-3.3594 2.7969-2.8008v-1.1172h-1.6797l-2.7969 1.6797v1.6797l-1.6836 0.55859v-6.1602l-1.6797-1.6797h-10.637l-8.4023 1.6797-7.8398 3.3594-2.8008 0.5625-2.2383 0.55859-1.6797-2.8008 2.8008-9.5195 1.6797-10.641 0.55859-9.5195 7.8398-3.918 7.2812-1.1211 8.957-8.3984 6.1602-5.043 2.8008-0.55859v2.2383h3.3594l-1.1172-1.6797v-1.6797l2.2383-0.55859 3.3594-3.9219 1.1211-1.6797h2.2383l1.1211 1.1211 3.9219 0.55859 0.55859 1.6797-2.2383 5.6016 0.55859 2.2383 1.1211 1.6836 3.918 3.918 2.2422-0.55859 3.3594-6.1602 1.1211-5.043 1.1172-3.918z"></path>
  <path d="m569.52 417.76 1.1211-0.5625 1.1211 1.1211 1.6797-0.55859h2.2383l0.55859 2.2383-2.7969 1.6797-0.5625 1.1211-1.6797 1.6797h-3.918v-2.8008l1.1172-2.8008v-1.6797z"></path>
  <path d="m625.52 407.12 1.1211 1.1172 0.55859 5.043v2.7969l2.8008 0.5625v1.6797h-2.8008l-2.2383 1.6797-2.8008 2.8008-1.6797 2.8008-2.2422-0.5625 0.5625-2.2383 0.55859-3.3594 2.2422-1.1211 2.2383-2.2422 0.55859-3.918 0.5625-3.9219z"></path>
  <path d="m614.88 422.8 1.6797 1.6797 0.5625 2.2383-2.8008 1.1211-5.0391 1.1211-3.3594 2.8008-2.2422 1.6797-1.1211 1.6797-1.6797 1.1172h-5.0391v-2.7969l1.6797-1.1211 4.4805-1.6797 2.8008-2.2422 3.918-1.6797 3.3594-3.3594z"></path>
  <use x="70" y="644" xlink:href="#y"></use>
  <use x="90.550781" y="644" xlink:href="#b"></use>
  <use x="104.359375" y="644" xlink:href="#a"></use>
  <use x="123.347656" y="644" xlink:href="#g"></use>
  <use x="142.242188" y="644" xlink:href="#c"></use>
  <use x="155.628906" y="644" xlink:href="#a"></use>
  <use x="174.617188" y="644" xlink:href="#l"></use>
  <use x="204.410156" y="644" xlink:href="#k"></use>
  <use x="224.453125" y="644" xlink:href="#j"></use>
  <use x="252.453125" y="644" xlink:href="#i"></use>
  <use x="274.121094" y="644" xlink:href="#x"></use>
  <use x="292.375" y="644" xlink:href="#f"></use>
  <use x="312.304688" y="644" xlink:href="#w"></use>
  <use x="321.90625" y="644" xlink:href="#h"></use>
  <use x="341.835938" y="644" xlink:href="#g"></use>
  <use x="360.734375" y="644" xlink:href="#f"></use>
  <use x="390.414062" y="644" xlink:href="#v"></use>
  <use x="412.109375" y="644" xlink:href="#e"></use>
  <use x="421.710938" y="644" xlink:href="#b"></use>
  <use x="435.515625" y="644" xlink:href="#e"></use>
  <use x="445.117187" y="644" xlink:href="#u"></use>
  <use x="461.78125" y="644" xlink:href="#e"></use>
  <use x="471.378906" y="644" xlink:href="#t"></use>
  <use x="70" y="672" xlink:href="#s"></use>
  <use x="82.183594" y="672" xlink:href="#b"></use>
  <use x="95.992188" y="672" xlink:href="#d"></use>
  <use x="115.226562" y="672" xlink:href="#r"></use>
  <use x="154.152344" y="672" xlink:href="#c"></use>
  <use x="167.535156" y="672" xlink:href="#h"></use>
  <use x="187.46875" y="672" xlink:href="#a"></use>
  <use x="216.207031" y="672" xlink:href="#q"></use>
  <use x="239.640625" y="672" xlink:href="#d"></use>
  <use x="258.878906" y="672" xlink:href="#p"></use>
  <use x="278.8125" y="672" xlink:href="#f"></use>
  <use x="308.492188" y="672" xlink:href="#o"></use>
  <use x="329.015625" y="672" xlink:href="#b"></use>
  <use x="342.820312" y="672" xlink:href="#d"></use>
  <use x="362.058594" y="672" xlink:href="#n"></use>
  <use x="371.65625" y="672" xlink:href="#a"></use>
  <use x="390.648438" y="672" xlink:href="#m"></use>
  <use x="407.242188" y="672" xlink:href="#c"></use>
 </g>
</svg>
