<?xml version="1.0" encoding="UTF-8"?>
<svg width="700pt" height="700pt" version="1.1" viewBox="0 0 700 700" xmlns="http://www.w3.org/2000/svg" xmlns:xlink="http://www.w3.org/1999/xlink">
 <defs>
  <symbol id="u" overflow="visible">
   <path d="m14.656-0.875c-0.76172 0.39844-1.5547 0.69531-2.375 0.89062-0.8125 0.19531-1.6641 0.29688-2.5469 0.29688-2.6562 0-4.7617-0.73828-6.3125-2.2188-1.5547-1.4883-2.3281-3.5039-2.3281-6.0469 0-2.5508 0.77344-4.5664 2.3281-6.0469 1.5508-1.4883 3.6562-2.2344 6.3125-2.2344 0.88281 0 1.7344 0.10156 2.5469 0.29688 0.82031 0.19922 1.6133 0.49609 2.375 0.89062v3.2969c-0.76172-0.51953-1.5117-0.89844-2.25-1.1406-0.74219-0.23828-1.5234-0.35938-2.3438-0.35938-1.4688 0-2.625 0.46875-3.4688 1.4062-0.83594 0.9375-1.25 2.2344-1.25 3.8906 0 1.6484 0.41406 2.9375 1.25 3.875 0.84375 0.9375 2 1.4062 3.4688 1.4062 0.82031 0 1.6016-0.11719 2.3438-0.35938 0.73828-0.23828 1.4883-0.61719 2.25-1.1406z"/>
  </symbol>
  <symbol id="d" overflow="visible">
   <path d="m10.719-8.7031c-0.33594-0.15625-0.66797-0.26953-1-0.34375-0.32422-0.082031-0.65625-0.125-1-0.125-0.98047 0-1.7344 0.32031-2.2656 0.95312-0.53125 0.625-0.79688 1.5273-0.79688 2.7031v5.5156h-3.8125v-11.969h3.8125v1.9688c0.48828-0.78125 1.0508-1.3477 1.6875-1.7031 0.64453-0.36328 1.4102-0.54688 2.2969-0.54688 0.13281 0 0.27344 0.007812 0.42188 0.015625 0.14453 0.011719 0.36328 0.03125 0.65625 0.0625z"/>
  </symbol>
  <symbol id="a" overflow="visible">
   <path d="m13.781-6.0156v1.0938h-8.9375c0.09375 0.89844 0.41406 1.5703 0.96875 2.0156 0.55078 0.44922 1.3281 0.67188 2.3281 0.67188 0.80078 0 1.625-0.11719 2.4688-0.35938 0.84375-0.23828 1.7109-0.59766 2.6094-1.0781v2.9531c-0.90625 0.33594-1.8125 0.58984-2.7188 0.76562s-1.8125 0.26562-2.7188 0.26562c-2.1562 0-3.8398-0.54688-5.0469-1.6406-1.1992-1.1016-1.7969-2.6484-1.7969-4.6406 0-1.9453 0.58594-3.4766 1.7656-4.5938 1.1758-1.125 2.8008-1.6875 4.875-1.6875 1.875 0 3.375 0.57031 4.5 1.7031 1.1328 1.125 1.7031 2.6367 1.7031 4.5312zm-3.9375-1.2656c0-0.72656-0.21484-1.3125-0.64062-1.75-0.41797-0.44531-0.96875-0.67188-1.6562-0.67188-0.74219 0-1.3438 0.21094-1.8125 0.625-0.46094 0.41797-0.74609 1.0156-0.85938 1.7969z"/>
  </symbol>
  <symbol id="g" overflow="visible">
   <path d="m7.2031-5.3906c-0.80469 0-1.4062 0.13672-1.8125 0.40625-0.39844 0.27344-0.59375 0.67188-0.59375 1.2031 0 0.48047 0.16016 0.85938 0.48438 1.1406 0.32031 0.27344 0.77344 0.40625 1.3594 0.40625 0.71875 0 1.3203-0.25391 1.8125-0.76562 0.48828-0.51953 0.73438-1.1719 0.73438-1.9531v-0.4375zm5.8438-1.4375v6.8281h-3.8594v-1.7656c-0.51172 0.71875-1.0898 1.2461-1.7344 1.5781-0.63672 0.33203-1.418 0.5-2.3438 0.5-1.2422 0-2.2461-0.35938-3.0156-1.0781-0.77344-0.72656-1.1562-1.6719-1.1562-2.8281 0-1.3945 0.47656-2.4219 1.4375-3.0781 0.96875-0.65625 2.4883-0.98438 4.5625-0.98438h2.25v-0.29688c0-0.60156-0.24219-1.0469-0.71875-1.3281-0.48047-0.28125-1.2266-0.42188-2.2344-0.42188-0.8125 0-1.5742 0.085937-2.2812 0.25-0.71094 0.15625-1.3672 0.40234-1.9688 0.73438v-2.9219c0.82031-0.19531 1.6445-0.34766 2.4688-0.45312 0.82031-0.10156 1.6484-0.15625 2.4844-0.15625 2.1562 0 3.7109 0.42969 4.6719 1.2812 0.95703 0.84375 1.4375 2.2266 1.4375 4.1406z"/>
  </symbol>
  <symbol id="b" overflow="visible">
   <path d="m6.0156-15.359v3.3906h3.9375v2.7344h-3.9375v5.0781c0 0.55469 0.10938 0.92969 0.32812 1.125 0.21875 0.19922 0.65625 0.29688 1.3125 0.29688h1.9688v2.7344h-3.2812c-1.5117 0-2.5859-0.3125-3.2188-0.9375-0.625-0.63281-0.9375-1.707-0.9375-3.2188v-5.0781h-1.9062v-2.7344h1.9062v-3.3906z"/>
  </symbol>
  <symbol id="i" overflow="visible">
   <path d="m9.9688-10.219v-6.4062h3.8594v16.625h-3.8594v-1.7344c-0.52344 0.71094-1.1016 1.2305-1.7344 1.5625-0.63672 0.32031-1.3711 0.48438-2.2031 0.48438-1.4688 0-2.6797-0.58203-3.625-1.75-0.94922-1.1758-1.4219-2.6875-1.4219-4.5312s0.47266-3.3477 1.4219-4.5156c0.94531-1.1758 2.1562-1.7656 3.625-1.7656 0.83203 0 1.5664 0.16797 2.2031 0.5 0.63281 0.32422 1.2109 0.83594 1.7344 1.5312zm-2.5156 7.75c0.82031 0 1.4453-0.29688 1.875-0.89062 0.42578-0.60156 0.64062-1.4727 0.64062-2.6094 0-1.1445-0.21484-2.0156-0.64062-2.6094-0.42969-0.59375-1.0547-0.89062-1.875-0.89062-0.8125 0-1.4336 0.29688-1.8594 0.89062-0.42969 0.59375-0.64062 1.4648-0.64062 2.6094 0 1.1367 0.21094 2.0078 0.64062 2.6094 0.42578 0.59375 1.0469 0.89062 1.8594 0.89062z"/>
  </symbol>
  <symbol id="c" overflow="visible">
   <path d="m8.2031-2.4688c0.82031 0 1.4453-0.29688 1.875-0.89062 0.42578-0.60156 0.64062-1.4727 0.64062-2.6094 0-1.1445-0.21484-2.0156-0.64062-2.6094-0.42969-0.59375-1.0547-0.89062-1.875-0.89062-0.82422 0-1.4531 0.30469-1.8906 0.90625-0.4375 0.59375-0.65625 1.4609-0.65625 2.5938 0 1.1367 0.21875 2.0078 0.65625 2.6094 0.4375 0.59375 1.0664 0.89062 1.8906 0.89062zm-2.5469-7.75c0.53125-0.69531 1.1133-1.207 1.75-1.5312 0.64453-0.33203 1.3828-0.5 2.2188-0.5 1.4688 0 2.6758 0.58984 3.625 1.7656 0.94531 1.168 1.4219 2.6719 1.4219 4.5156s-0.47656 3.3555-1.4219 4.5312c-0.94922 1.168-2.1562 1.75-3.625 1.75-0.83594 0-1.5742-0.16797-2.2188-0.5-0.63672-0.33203-1.2188-0.84766-1.75-1.5469v1.7344h-3.8125v-16.625h3.8125z"/>
  </symbol>
  <symbol id="f" overflow="visible">
   <path d="m0.26562-11.969h3.8281l3.2188 8.125 2.7344-8.125h3.8125l-5.0312 13.094c-0.5 1.332-1.0898 2.2656-1.7656 2.7969-0.66797 0.53125-1.5547 0.79688-2.6562 0.79688h-2.2188v-2.5h1.2031c0.64453 0 1.1133-0.10547 1.4062-0.3125 0.30078-0.21094 0.53125-0.57812 0.6875-1.1094l0.10938-0.34375z"/>
  </symbol>
  <symbol id="h" overflow="visible">
   <path d="m2.0156-15.953h4.1094v6.0781h6.0625v-6.0781h4.1094v15.953h-4.1094v-6.7656h-6.0625v6.7656h-4.1094z"/>
  </symbol>
  <symbol id="t" overflow="visible">
   <path d="m7.8438-8.875c0.86328 0 1.4844-0.16016 1.8594-0.48438 0.375-0.32031 0.5625-0.84766 0.5625-1.5781 0-0.72656-0.1875-1.25-0.5625-1.5625s-0.99609-0.46875-1.8594-0.46875h-1.7188v4.0938zm-1.7188 2.8438v6.0312h-4.1094v-15.953h6.2656c2.1016 0 3.6445 0.35547 4.625 1.0625 0.97656 0.71094 1.4688 1.8242 1.4688 3.3438 0 1.0547-0.25781 1.918-0.76562 2.5938-0.51172 0.67969-1.2773 1.1797-2.2969 1.5 0.5625 0.125 1.0625 0.41797 1.5 0.875 0.44531 0.44922 0.89844 1.1328 1.3594 2.0469l2.2344 4.5312h-4.375l-1.9531-3.9688c-0.38672-0.78906-0.78125-1.332-1.1875-1.625-0.40625-0.28906-0.94531-0.4375-1.6094-0.4375z"/>
  </symbol>
  <symbol id="s" overflow="visible">
   <path d="m1.8438-11.969h3.8125v11.969h-3.8125zm0-4.6562h3.8125v3.125h-3.8125z"/>
  </symbol>
  <symbol id="r" overflow="visible">
   <path d="m9.7031-16.625v2.5156h-2.1094c-0.54297 0-0.92188 0.10156-1.1406 0.29688-0.21094 0.19922-0.3125 0.53906-0.3125 1.0156v0.82812h3.2656v2.7344h-3.2656v9.2344h-3.8281v-9.2344h-1.8906v-2.7344h1.8906v-0.82812c0-1.3008 0.36328-2.2656 1.0938-2.8906 0.72656-0.625 1.8516-0.9375 3.375-0.9375z"/>
  </symbol>
  <symbol id="e" overflow="visible">
   <path d="m7.5312-9.5156c-0.84375 0-1.4922 0.30859-1.9375 0.92188-0.44922 0.60547-0.67188 1.4805-0.67188 2.625 0 1.1484 0.22266 2.0273 0.67188 2.6406 0.44531 0.60547 1.0938 0.90625 1.9375 0.90625 0.83203 0 1.4688-0.30078 1.9062-0.90625 0.44531-0.61328 0.67188-1.4922 0.67188-2.6406 0-1.1445-0.22656-2.0195-0.67188-2.625-0.4375-0.61328-1.0742-0.92188-1.9062-0.92188zm0-2.7344c2.0508 0 3.6562 0.55859 4.8125 1.6719 1.1641 1.1055 1.75 2.6406 1.75 4.6094s-0.58594 3.5117-1.75 4.625c-1.1562 1.1055-2.7617 1.6562-4.8125 1.6562-2.0625 0-3.6797-0.55078-4.8438-1.6562-1.168-1.1133-1.75-2.6562-1.75-4.625s0.58203-3.5039 1.75-4.6094c1.1641-1.1133 2.7812-1.6719 4.8438-1.6719z"/>
  </symbol>
  <symbol id="q" overflow="visible">
   <path d="m12.922-9.9688c0.48828-0.75 1.0625-1.3164 1.7188-1.7031 0.66406-0.38281 1.3984-0.57812 2.2031-0.57812 1.375 0 2.4219 0.42969 3.1406 1.2812 0.71875 0.84375 1.0781 2.0742 1.0781 3.6875v7.2812h-3.8438v-6.2344c0.007812-0.09375 0.015625-0.1875 0.015625-0.28125v-0.4375c0-0.84375-0.125-1.457-0.375-1.8438-0.25-0.38281-0.65234-0.57812-1.2031-0.57812-0.73047 0-1.293 0.30469-1.6875 0.90625-0.38672 0.59375-0.58984 1.4609-0.60938 2.5938v5.875h-3.8438v-6.2344c0-1.3203-0.11719-2.1758-0.34375-2.5625-0.23047-0.38281-0.63672-0.57812-1.2188-0.57812-0.73047 0-1.2969 0.30469-1.7031 0.90625-0.39844 0.60547-0.59375 1.4648-0.59375 2.5781v5.8906h-3.8438v-11.969h3.8438v1.75c0.46875-0.66406 1.0039-1.1719 1.6094-1.5156 0.61328-0.34375 1.2891-0.51562 2.0312-0.51562 0.82031 0 1.5508 0.19922 2.1875 0.59375 0.63281 0.39844 1.1133 0.96094 1.4375 1.6875z"/>
  </symbol>
  <symbol id="p" overflow="visible">
   <path d="m13.859-7.2812v7.2812h-3.8438v-5.5469c0-1.0508-0.027344-1.7695-0.078125-2.1562-0.042969-0.39453-0.12109-0.6875-0.23438-0.875-0.14844-0.25-0.35156-0.44141-0.60938-0.57812-0.25-0.14453-0.54297-0.21875-0.875-0.21875-0.79297 0-1.418 0.3125-1.875 0.9375-0.46094 0.61719-0.6875 1.4648-0.6875 2.5469v5.8906h-3.8125v-16.625h3.8125v6.4062c0.58203-0.69531 1.1953-1.207 1.8438-1.5312 0.64453-0.33203 1.3594-0.5 2.1406-0.5 1.3828 0 2.4297 0.42969 3.1406 1.2812 0.71875 0.84375 1.0781 2.0742 1.0781 3.6875z"/>
  </symbol>
  <symbol id="o" overflow="visible">
   <path d="m2.0156-15.953h4.5781l5.8125 10.938v-10.938h3.8906v15.953h-4.5938l-5.7969-10.938v10.938h-3.8906z"/>
  </symbol>
  <symbol id="n" overflow="visible">
   <path d="m1.7031-4.6562v-7.3125h3.8438v1.2031c0 0.64844-0.007813 1.4609-0.015625 2.4375v1.9688c0 0.96094 0.023438 1.6523 0.078125 2.0781 0.050781 0.41797 0.13281 0.72656 0.25 0.92188 0.15625 0.25 0.35938 0.44531 0.60938 0.57812 0.25781 0.13672 0.55078 0.20312 0.875 0.20312 0.80078 0 1.4258-0.30469 1.875-0.92188 0.45703-0.61328 0.6875-1.4688 0.6875-2.5625v-5.9062h3.8281v11.969h-3.8281v-1.7344c-0.57422 0.69922-1.1836 1.2148-1.8281 1.5469-0.64844 0.33203-1.3555 0.5-2.125 0.5-1.3867 0-2.4453-0.42188-3.1719-1.2656-0.71875-0.85156-1.0781-2.0859-1.0781-3.7031z"/>
  </symbol>
  <symbol id="m" overflow="visible">
   <path d="m13.859-7.2812v7.2812h-3.8438v-5.5781c0-1.0312-0.027344-1.7383-0.078125-2.125-0.042969-0.39453-0.12109-0.6875-0.23438-0.875-0.14844-0.25-0.35156-0.44141-0.60938-0.57812-0.25-0.14453-0.54297-0.21875-0.875-0.21875-0.79297 0-1.418 0.3125-1.875 0.9375-0.46094 0.61719-0.6875 1.4648-0.6875 2.5469v5.8906h-3.8125v-11.969h3.8125v1.75c0.58203-0.69531 1.1953-1.207 1.8438-1.5312 0.64453-0.33203 1.3594-0.5 2.1406-0.5 1.3828 0 2.4297 0.42969 3.1406 1.2812 0.71875 0.84375 1.0781 2.0742 1.0781 3.6875z"/>
  </symbol>
  <symbol id="l" overflow="visible">
   <path d="m2.0156-15.953h6.8125c2.0312 0 3.5859 0.45312 4.6719 1.3594 1.0938 0.89844 1.6406 2.1797 1.6406 3.8438 0 1.6797-0.54688 2.9688-1.6406 3.875-1.0859 0.89844-2.6406 1.3438-4.6719 1.3438h-2.7031v5.5312h-4.1094zm4.1094 2.9844v4.4531h2.2656c0.80078 0 1.4141-0.19141 1.8438-0.57812 0.4375-0.38281 0.65625-0.9375 0.65625-1.6562 0-0.70703-0.21875-1.2539-0.65625-1.6406-0.42969-0.38281-1.043-0.57812-1.8438-0.57812z"/>
  </symbol>
  <symbol id="k" overflow="visible">
   <path d="m1.8438-11.969h3.8125v11.75c0 1.6016-0.38672 2.8281-1.1562 3.6719-0.76172 0.84375-1.8711 1.2656-3.3281 1.2656h-1.8906v-2.5h0.65625c0.72656 0 1.2266-0.16797 1.5-0.5 0.26953-0.32422 0.40625-0.96875 0.40625-1.9375zm0-4.6562h3.8125v3.125h-3.8125z"/>
  </symbol>
  <symbol id="j" overflow="visible">
   <path d="m11.5-11.594v3.125c-0.52344-0.35156-1.043-0.61328-1.5625-0.78125-0.52344-0.17578-1.0625-0.26562-1.625-0.26562-1.0742 0-1.9062 0.3125-2.5 0.9375s-0.89062 1.4961-0.89062 2.6094c0 1.1172 0.29688 1.9844 0.89062 2.6094s1.4258 0.9375 2.5 0.9375c0.59375 0 1.1562-0.085937 1.6875-0.26562 0.53906-0.17578 1.0391-0.44141 1.5-0.79688v3.125c-0.59375 0.23047-1.1992 0.39453-1.8125 0.5-0.61719 0.11328-1.2344 0.17188-1.8594 0.17188-2.1562 0-3.8438-0.55078-5.0625-1.6562-1.2188-1.1133-1.8281-2.6562-1.8281-4.625s0.60938-3.5039 1.8281-4.6094c1.2188-1.1133 2.9062-1.6719 5.0625-1.6719 0.625 0 1.2383 0.058594 1.8438 0.17188 0.61328 0.10547 1.2227 0.26562 1.8281 0.48438z"/>
  </symbol>
 </defs>
 <g>
  <path d="m321.97 201.32c-10.395 7.7773-19.387 15.41-22.945 28.371 3.9375 6.6133 11.512 10.062 21.297 10.418 9.6914 0.33984 20.16 0.21875 28.809-4.375-4.4531 1.1133-9.0234 1.6914-13.613 1.7188-4.8477 0-7.7305-0.53516-7.7305-1.0195s2.8555-0.91797 7.5117-1.6445c4.3242-0.61719 8.5977-1.543 12.793-2.7656-2.0117-0.38672-3.9766-0.77344-5.8633-1.1641-1.8555-0.39062-3.7344-0.68359-5.6211-0.875-3.6836-0.36328-7.0508-0.39062-9.9102-0.4375-5.6875 0-9.2812 0.074219-9.3555-0.50781s3.3672-1.625 9.1875-2.375c3.4336-0.41016 6.8906-0.55859 10.344-0.4375 2.082 0.10938 4.1523 0.35938 6.1992 0.75391l0.82812 0.14453c-1.043-0.8125-2.0234-1.7031-2.9336-2.6641-0.41406-0.50781-0.84766-1.0195-1.2852-1.5547-0.36328-0.57812-0.72656-1.1875-1.0898-1.7891-0.35547-0.63281-0.64844-1.2969-0.875-1.9844l-0.41016-1.0195-0.097656-0.26563-0.10156-0.39062-0.11719-0.50781c-0.12109-0.65234-0.26563-1.3125-0.41016-1.9609-0.046875-0.77734-0.12109-1.5273-0.17188-2.2812-0.039062-0.70313-0.007812-1.4102 0.097656-2.1055 0.027344-0.65625 0.11328-1.3047 0.26563-1.9414 0.44531-2.1797 1.2188-4.2773 2.3008-6.2227 1.8164-3.2227 3.418-4.8477 3.875-4.6016 0.53516 0.28906-0.17188 2.4453-1.2109 5.7188v-0.003906c-0.58203 1.8555-0.99609 3.7578-1.2305 5.6875-0.089843 0.53906-0.13281 1.082-0.125 1.625-0.023437 0.55078-0.015624 1.1016 0.027344 1.6484 0.046875 0.50781 0.097656 1.0625 0.14453 1.5977 0.14453 0.65625 0.28906 1.2852 0.4375 1.9375 0.53906 2.1719 1.5195 4.2109 2.8828 5.9844 0.082031 0.10547 0.16797 0.20312 0.26172 0.29297-4.1172-10.641 5.2852-23.816 14.805-29.75-7.875-3.8008-16.402-5.8633-24.66-0.50781-4.3359 2.8359-8.1914 6.1797-12.309 9.2539z"/>
  <path d="m296.88 225.63h0.066406c0.44922 0 0.85156-0.27734 1.0156-0.69531 5.0781-12.91 15.922-21.035 27.402-29.641l1.3867-1.043h-0.003906c3.1875-2.4727 6.7266-4.4531 10.5-5.8789 0.50781-0.17969 0.80469-0.70312 0.70703-1.2305-0.11719-0.51172-0.57422-0.87891-1.1016-0.875-5.0742-0.19531-10.098 1.0664-14.477 3.6367-4.3828 2.5703-7.9336 6.3398-10.234 10.867-3.0781 4.2266-6.9883 7.7812-11.484 10.441-1.8594 1.3125-3.6094 2.5195-5.1484 3.7656l-0.003906 0.003907c-0.035156 0.03125-0.070312 0.0625-0.10547 0.097656-0.1875 0.19141-0.30078 0.44531-0.31641 0.71484-0.19922 3.0352 0.074219 6.0859 0.80859 9.0391 0.125 0.44922 0.52344 0.76953 0.98828 0.79688z"/>
  <path d="m287.91 243.17c1.9727-2.457 4.2266-4.6797 6.7109-6.6172-3.2812-4.2031-5.2461-9.2891-5.6445-14.605-3.293 2.8359-6.5625 5.6875-9.7852 8.625v-0.003906c1.6289 4.9531 4.6602 9.3281 8.7188 12.602z"/>
  <path d="m269.25 263.84c4.1797-0.70703 8.4414-0.79688 12.648-0.26953-3.3438 1.4141-6.8828 2.3008-10.5 2.625 3.6719 4.1406 7.5625 8.0781 11.664 11.793 12.934 10.961 28.383 18.543 44.965 22.07 13.688-17.805 24.449-38.449 36.273-57.008-2.2344-1.3477-4.3945-2.8203-6.4688-4.4062-12.02 9.1875-29.68 10.637-44.238 8.1367h-0.003906c-6.1016-0.85938-11.816-3.4766-16.453-7.5352-2.8789 2.2148-5.4648 4.7773-7.7031 7.6328-0.57812 0.58984-1.4805 0.70703-2.1875 0.28906-5-3.4297-8.8125-8.332-10.902-14.023-6.5156 5.9336-12.938 11.992-19.25 18.047 4.2617 3.9492 8.2109 8.2852 12.156 12.648zm86.438-11.945c-1.8906 6.3047-5.4492 11.98-10.297 16.43-3.4375 3.2461-5.8828 4.6523-6.125 4.3359-0.33594-0.36328 1.5273-2.3984 4.3398-5.957v-0.003907c2.6094-3.2188 4.8125-6.7422 6.5625-10.5-0.14453 0.097657-0.26172 0.17188-0.38672 0.26563-1.8672 0.99219-3.7812 2.0117-5.7188 3.0625-8.3906 4.0352-17.48 6.4062-26.773 6.9805-1.8164 0-3.4375 0-4.8438-0.046875v-0.003906c-1.1914-0.082031-2.3711-0.24219-3.5391-0.48438-1.9102-0.36328-2.9531-0.69922-2.9531-0.99219 0-0.29297 1.0898-0.48047 3.0625-0.60547 0.97266-0.097656 2.1875-0.027344 3.5391-0.19141 1.3516-0.16797 2.8359-0.33984 4.5078-0.55859 8.7422-1.3828 17.246-4.0117 25.246-7.8008 1.8359-0.96875 3.6797-1.9102 5.4531-2.8555 1.6914-1.0469 3.3438-2.0859 4.918-3.0625l4.3125-2.7109zm-40.773-0.074219c5.4258-0.40625 10.82-1.1367 16.16-2.1875 2.4453-0.58203 4.8125-1.0156 6.9258-1.6914 1.0664-0.29297 2.1094-0.58203 3.1016-0.875 0.99219-0.29297 1.918-0.65234 2.8125-0.96875 3.7773-1.7461 7.6914-3.1914 11.699-4.3125-2.9219 3.1484-6.5625 5.543-10.609 6.9766-0.92188 0.41016-1.8672 0.82422-2.8359 1.2812-1.0195 0.36719-2.0625 0.73047-3.1484 1.1406-2.1875 0.82422-4.582 1.4062-7.1016 2.1289v0.003906c-5.4961 1.3125-11.086 2.1914-16.715 2.625-5.625 0.35547-11.266 0.34766-16.891-0.023438-4.5703-0.33594-9.1133-0.94531-13.613-1.8203-4.2461-0.42188-8.3555-1.7266-12.066-3.8281 0.25391-1.2852 18.984 3.2969 42.266 1.5508z"/>
  <path d="m286.16 285.25c-6.7734-5.5664-13.066-11.695-18.812-18.316-4.0195 0.62891-8.6992 1.5469-13.859 2.4727v-0.003906c17.297 19.82 39.824 34.367 65.008 41.973 2.4492-2.625 4.8008-5.3398 7.0508-8.1406v-0.003906c-14.23-3.1992-27.645-9.3203-39.387-17.98z"/>
  <path d="m296.62 340.62c1.3438-0.38281 2.7891-0.0625 3.8516 0.84766 4.2891 0.48438 14.758-3.3672 21.539-6.6133 0.31641-0.29297 0.62891-0.55469 0.94531-0.875l-0.003907-0.003906c0.36719-0.37109 0.70703-0.76953 1.0195-1.1875l0.58203-0.80078 0.26562-0.41016h0.023437v-0.027344l0.027344-0.046875 0.12109-0.21875c0.38672-0.75 0.79688-1.5469 1.1875-2.3242-3.1953-1.6445-6.168-3.6875-8.8438-6.082-7.0039 6.6719-14.906 12.332-23.48 16.812 0.90625 0.34766 1.8242 0.66016 2.7656 0.92969z"/>
  <path d="m308.6 443.15c-0.875-0.29297-1.75-0.46484-2.7383-0.70312-0.23438-0.074219-0.48047-0.12109-0.72656-0.14453l-0.75391-0.097657h0.003906c-0.45312-0.066406-0.89062-0.1875-1.3125-0.36328-0.38672 0.875-0.80078 1.7891-1.1875 2.6875 6.6367 4.8125 16.402 3.8281 24.18 3.5 3.875 0 7.5938-1.5312 10.348-4.2578 2.7539-2.7266 4.3203-6.4297 4.3594-10.305-1.3125 1.9805-2.9023 3.7617-4.7266 5.2812-3.582 2.957-6.0547 4.168-6.3945 3.7812-0.33984-0.39062 1.5273-2.4922 4.375-5.7656 2.3086-2.457 4.0078-5.418 4.9648-8.6484-0.19922 0.23437-0.42188 0.45312-0.65625 0.65625-1.2344 1.1602-2.4453 2.3008-3.6094 3.3633-2.3477 2.0625-4.5273 3.9023-6.3711 5.3828-3.7109 2.9297-6.2031 4.5273-6.5938 4.1172-0.39062-0.41016 1.4102-2.7617 4.6055-6.2266 1.5977-1.75 3.5-3.7539 5.6875-5.9375h0.003907c2.3672-2.1445 4.4648-4.5703 6.25-7.2188l0.28906-0.48438v-0.003906c-2.2539-13.902-2.4922-28.062-0.69922-42.031 2.1289-16.449 5.957-29.488-8.1914-40.754-4.4766 2.2227-9.1797 3.9609-14.031 5.1836-3.7148 1.7266-7.543 3.207-11.457 4.4297l0.50781 0.94531 0.26562 0.10156c1.0195 0.36328 2.0625 0.72656 2.9805 1.1367l2.5195 1.3125c0.77734 0.41406 1.5273 0.80078 2.2539 1.2109 0.67969 0.29297 1.4805 0.62891 1.9844 0.875 1.5742 0.4375 3.0625 0.96875 4.4102 1.2812 1.3125 0.24609 2.5469 0.53516 3.7305 0.72656 4.7266 0.75391 7.7031 1.1914 7.6562 1.75-0.023438 0.46094-2.9297 0.94531-7.875 0.92188-1.2617-0.027344-2.6914-0.19531-4.1914-0.33984s-2.957-0.55469-4.582-0.875c-0.875-0.31641-1.75-0.62891-2.6914-0.97266-0.82422-0.36328-1.625-0.77344-2.4453-1.1641-0.17188-0.070312-0.33984-0.16797-0.48438-0.24219 0.046875 0.12109 0.097656 0.21875 0.12109 0.31641 0.39062 0.91797 0.77344 1.75 1.1367 2.5664 0.55859 1.043 1.1172 2.082 1.625 3.125 0.53516 0.82812 1.0898 1.8203 1.5273 2.4727 0.55859 0.75391 1.0898 1.5039 1.6016 2.2305l0.003906 0.003906c0.51562 0.75781 1.1016 1.4648 1.75 2.1094l1.8203 1.9609c1.1875 1.1641 2.3242 2.2305 3.3438 3.1992 1.5859 1.5234 3.3164 2.8945 5.1602 4.0938 0.33594 0.17188 0.60547 0.39062 0.875 0.53516 0.25781 0.09375 0.50781 0.20703 0.75391 0.33594 0.41016 0.19531 0.60547 0.36719 0.58203 0.51172-0.023438 0.14453-0.26563 0.24219-0.73047 0.28906-0.66797 0.097656-1.3477 0.039062-1.9883-0.17188-2.3359-0.70703-4.5234-1.8281-6.4609-3.3125-1.2852-0.91797-2.4219-1.793-3.9375-3.0625 0.52344 2.2812 0.73438 4.6211 0.62891 6.957 5.4023 4.9453 9.8242 10.863 13.035 17.441 2.4492 5.1367 3.1992 8.4805 2.7852 8.6289-0.48438 0.21484-2.082-2.7383-5.0391-7.3672-3.1719-4.957-6.9023-9.5352-11.121-13.641-0.48047 7.293-1.0898 14.73-2.082 22.051 0.14453 1.0625 0.36328 2.1094 0.58203 3.1016 0.48438 1.9609 1.1367 3.8516 1.5742 5.5703v-0.003906c0.49219 2.6016 1.5352 5.0664 3.0625 7.2266 0.46094 0.51172 0.98047 0.96875 1.5547 1.3555 0.48438 0.26562 0.69922 0.4375 0.67969 0.58203-0.023437 0.14453-0.33984 0.21875-0.89844 0.21875-0.86328-0.11719-1.6836-0.44922-2.3789-0.97266-2.2773-1.9844-3.9336-4.582-4.7734-7.4844-0.21875-0.58203-0.4375-1.1914-0.69922-1.75-0.10156 0.50781-0.14844 1.043-0.24609 1.5469h0.003907c-0.87891 4.3242-2.0859 8.5781-3.6094 12.719 1.375 2.6797 3.3164 5.0273 5.6875 6.8828 2.0625 1.6484 3.5 2.625 3.293 3.1016-0.17187 0.41016-1.9375 0.29297-4.6523-0.91797-2.3203-1.0586-4.3672-2.6328-5.9844-4.6094-0.72656 1.7734-1.4531 3.5391-2.2305 5.3086l0.050781 0.12109h0.11719c-0.097656-0.046875-0.097656-0.097656-0.070313-0.097656 0.027344 0 0.097657-0.046875 0.097657-0.046875h0.19531c0.11719 0.058593 0.23047 0.12109 0.33984 0.19531h-0.21875l-0.33984-0.046875v-0.003906c0.11719 0.078125 0.25 0.12891 0.38672 0.14453 0.28906 0.074219 0.55469 0.14453 0.875 0.21875 0.32031 0.074219 0.51172 0.17188 0.80078 0.28906 1.0664 0.4375 2.0625 0.84766 2.8359 1.2617 0.77344 0.41016 1.4805 0.77734 2.082 1.1172v-0.003906c0.51562 0.30859 1.0508 0.58594 1.6016 0.82422 0.94531 0.4375 1.4258 0.82813 1.3789 1.0938-0.046876 0.26563-0.65234 0.4375-1.6914 0.48047h-0.003906c-1.5117-0.0625-3.0078-0.33203-4.4492-0.80469z"/>
  <path d="m341.69 321.68-1.1211-0.52344c-1.9258-0.89844-3.7812-1.9375-5.5508-3.1133l-1.25-0.83594-0.40625 1.4492c-0.26172 0.92578-0.54688 1.8828-0.875 2.8828l-1.3477 3.6914c-0.21094 0.5625-0.4375 1.1289-0.67188 1.7109l-0.46875 1.0547 1.0781 0.40625c1.0312 0.39844 2.0703 0.76562 3.1289 1.1094l0.55859 0.18359 0.46484-0.36719h-0.003906c2.2852-1.8594 4.2461-4.0898 5.793-6.5977z"/>
  <path d="m411.45 48.371c-0.49219-0.32031-0.96094-0.67969-1.4023-1.0703-1.2109-1.1914-2.3047-2.4961-3.2695-3.8945-0.19531-0.24609-0.41016-0.51172-0.48438-0.58203l-0.046874-0.046875v-0.003906c-0.41406 0.089843-0.82031 0.21484-1.2148 0.36328-4.8711 2.0078-8.0938 2.2266-8.2383 1.75-0.21875-0.60547 2.7617-1.8438 7.0508-4.4336l0.003906 0.003906c0.74219-0.44141 1.5664-0.73828 2.418-0.875 0.74609-0.039062 1.4766 0.19141 2.0625 0.65625 0.375 0.29688 0.72266 0.63281 1.0391 0.99219 1.0156 1.1016 2.0898 2.1445 3.2266 3.125 1.2969 1.0625 2.8828 1.7148 4.5547 1.8672 2.4453 0.42188 4.9609 0.23047 7.3125-0.5625 4.168-2.0547 1.6719-6.0078 3.1289-9.1562 0.30078-0.51172 0.67969-0.97656 1.1172-1.3828 0.35547-0.30469 0.73438-0.58203 1.1367-0.82031 1.293-0.77734 2.6641-1.4102 4.0938-1.8906 5.0156-1.6484 8.2383-1.8438 8.3828-1.3555 0.17188 0.58203-2.8125 1.8164-7.2461 4.0195-1.1562 0.5625-2.2578 1.2266-3.293 1.9883-1.1641 0.94531-1.0898 1.043-1.1367 2.7188v-0.003906c0.070313 0.99609 0.027344 1.9922-0.125 2.9805-0.007813 0.15234-0.050781 0.30078-0.12109 0.4375 2.2695-0.21484 4.3594-1.3359 5.793-3.1133 0.26172-0.33984 0.57031-0.64062 0.91797-0.89453 3.0312-1.7734 6.3828-2.9336 9.8633-3.418-0.53906-3.6719-1.4648-7.2812-2.7617-10.758-4.1484 0.87109-8.2227 2.0625-12.188 3.5625-0.61328 0.20312-1.2656 0.22656-1.8906 0.074219-0.41797-0.03125-0.82812-0.12891-1.2109-0.28906-5.6875-2.4023-9.9102-0.046875-15.457 1.1367-0.72656 0.17188-7.3633 1.2812-7.2188 2.0352 0.13281 0.64453 0.089843 1.3125-0.125 1.9375-0.17969 1.3711-1.1172 2.5234-2.4219 2.9805-3.8008 1.4102-7.875 1.793-11.75 2.9297h-0.003906c-0.38672 4.082 0.64062 8.1719 2.9102 11.586 5.5859-0.48828 11.129-1.3555 16.594-2.5938z"/>
  <path d="m441 104.44c-1.4102-5.8672-2.6992-11.812-3.9961-17.812-1.1328-5.25-2.2695-10.477-3.5-15.688l-0.34375-1.4727-1.4961 0.22266c-2.0938 0.31641-4.1875 0.60547-6.2812 0.875l-1.8125 0.22656 0.4375 1.7773c1.4727 6.2812 2.9297 12.574 4.375 18.879 1.4453 6.3047 2.9023 12.602 4.375 18.891 3.0547 13.027 6.0742 26.066 9.0625 39.113 0.39063 1.75 0.84766 3.5 1.3125 5.3242l-0.003906-0.003906c0.86328 3.0938 1.5664 6.2266 2.1016 9.3906l0.35547 2.3398 2.0664-1.1445h-0.003906c1.7891-1.0273 3.7148-1.7969 5.7188-2.2852l1.6328-0.37109-0.39844-1.625c-2.8242-11.566-5.6055-23.141-8.3516-34.723-1.75-7.3086-3.5-14.613-5.25-21.914z"/>
  <path d="m409.32 201.88c-1.1484-2.2383-2.6445-4.2852-4.4336-6.0586-1.8047 0.84766-3.3555 2.1602-4.4844 3.8086-0.99219 1.8633 1.5039 4.5078 3.1016 6.082 1.9414-1.168 3.8555-2.5234 5.8164-3.832z"/>
  <path d="m401.65 194.97 2.3828-1.6758-0.875-0.91797c-0.62891-0.65234-1.2344-1.3125-1.75-1.9844l-1.6797-2.082c-2.5156-3.1328-5.125-6.375-7.9844-9.3359-1.8711-1.918-3.8984-3.8867-6.1914-6.0195l-0.60938-0.5625-0.70312 0.4375c-0.53906 0.32812-1.0703 0.63281-1.6094 0.91406l-1.3359 0.69922 1.0781 1.0508v-0.007813c0.76562 0.72266 1.5703 1.3984 2.4141 2.0273 0.48828 0.375 0.97656 0.75391 1.457 1.1602 1.543 1.3438 2.9648 2.8203 4.2422 4.418 1.6914 2.0039 3.5586 3.8672 5.3633 5.6875 1.75 1.75 3.5391 3.5469 5.1523 5.4453z"/>
  <path d="m374.35 171.3 0.81641 0.36719v0.003907c1.2695 0.65625 2.6211 1.1367 4.0195 1.4258l0.33984 0.046875 0.30469-0.15234c0.14453-0.085937 0.31641-0.10938 0.47266-0.058593l0.32031 0.12109 0.33203-0.078125c0.23047-0.054687 0.45312-0.14062 0.66016-0.25781 0.15625-0.10938 0.32812-0.20312 0.5-0.29688l1.6914-1.0195-1.0898-0.98047c-2.5391-2.2695-5.2266-4.5273-8.0078-6.7109l-0.64844-0.51953-0.66406 0.48438c-1.6016 1.1836-2.9805 2.6367-4.0742 4.2969l-0.875 1.2773 1.4883 0.39062c1.5117 0.44141 2.9883 0.99609 4.4141 1.6602z"/>
  <path d="m403.33 173.32c5.9609 6.6914 11.461 13.785 16.453 21.227 1.8906-1.4102 3.7773-2.8359 5.6172-4.3398 0.89062-1.8984 2.0586-3.6523 3.4648-5.207-1.5469-9.9375-4.1445-21.344-13.492-26.797-9.8398-6.6055-22.426-7.5508-33.145-2.4961 6.4648 6.4414 14.801 10.66 21.102 17.613z"/>
  <path d="m385.59 201.91c1.9883 2.25 3.6289 4.7812 4.875 7.5117 0.77344 1.4062 0.4375 1.7188 1.9609 1.6719 1.7188-0.027344 6.3281-1.8906 6.832-3.7539 0.65234-2.375-3.7812-4.7266-2.6641-7.9961 0.49609-1.375 1.3086-2.6094 2.3711-3.6094-3.1992-3.7539-6.8086-7.1016-10.125-10.758 0.11719 0.97266 0.14453 1.8633 0.19141 2.6914 0 3.2188-0.33984 5.0898-0.84766 5.1836-0.58203 0.12109-1.2812-1.8438-2.0352-4.8125l0.003906-0.003906c-0.37109-1.6445-0.88281-3.2539-1.5273-4.8125-0.17578-0.42578-0.44141-0.8125-0.77344-1.1367h-0.027344c-0.44531 0.17578-0.84766 0.4375-1.1875 0.77734-2.8359 2.2305-2.1289 6.5195-1.3555 9.1367v-0.003906c0.33594 1.0781 0.75 2.1289 1.2344 3.1484 0.33984 0.75391 0.60938 1.2812 0.39062 1.4805-0.21875 0.19531-0.72656 0.14453-1.5547-0.39062-1.1133-0.8125-2.0391-1.8594-2.7109-3.0625-1.0586-1.7812-1.6719-3.793-1.7969-5.8594-0.0625-1.3242 0.12109-2.6445 0.53516-3.8984 0.26563-0.70312 0.61719-1.3711 1.043-1.9883 0.42188-0.57812 0.91016-1.1094 1.457-1.5742 0.5625-0.53516 1.207-0.97656 1.9102-1.3125-1.0234-0.88672-1.9336-1.8945-2.7109-3-0.12109-0.027344-0.24609-0.027344-0.39062-0.046875v-0.003906c-3.3555-1.3867-6.7852-2.5938-10.273-3.6094-0.48047 1.1133-0.87109 2.2656-1.1641 3.4414 0.035156 1.0391-0.32812 2.0508-1.0156 2.832-1.9844 2.3477-3.8281 4.7734-5.6211 7.2461 6.0859 2.8398 11.859 6.3047 17.227 10.344 2.7109 1.8906 5.2969 3.9531 7.75 6.168z"/>
  <path d="m397.28 177.5c1.418 1.625 2.9805 3.3047 4.5859 5.0273h-0.003906c4.8008 4.6992 8.9844 9.9922 12.449 15.75l0.58984 1.1172 3.457-2.4688-0.59766-0.875-0.003906-0.003907c-5.3867-8.2422-11.508-15.98-18.289-23.121-3.0898-2.9805-6.418-5.6953-9.957-8.125-3.4805-2.375-6.7422-5.0508-9.7578-7.9961l-0.61328-0.63281-0.75391 0.46484c-0.40234 0.25-0.80469 0.50391-1.207 0.78125l-1.2305 0.84766 1.1875 0.91406c7.2969 5.4336 14.047 11.566 20.145 18.32z"/>
  <path d="m432.25 65.625-0.4375-1.75c-1-3.9375-2.1875-8.0898-3.4648-12.316l-0.4375-1.457-1.4883 0.33594c-1.1016 0.23047-2.2148 0.39453-3.332 0.49609-0.81641 0.09375-1.6367 0.18359-2.4492 0.3125l-1.7734 0.28516 0.4375 1.75c1.043 4.082 2.0625 8.168 3.0625 12.25l0.34375 1.4258 1.457-0.1875c2.0938-0.26562 4.2188-0.55859 6.3125-0.875z"/>
  <path d="m433.86 224c-0.30078 1.1094-0.70703 2.1914-1.2109 3.2227-1.0352 2.0938-2.3008 4.0586-3.7812 5.8633-1.6445 2.0117-3.5625 4.0469-5.5469 6.125-3.4219 3.2656-6.3164 7.043-8.5742 11.195-1.5547 3.0625-2.1367 5.6172-2.7656 5.4531-0.28906-0.046875-0.46094-0.65625-0.53516-1.75-0.078124-1.6016 0.12109-3.2031 0.58203-4.7344 0.41406-1.3672 0.94141-2.6953 1.5781-3.9727-0.14453 0.070312-0.28906 0.17188-0.4375 0.24219-0.73828 0.29688-1.4922 0.55469-2.2539 0.77344-0.70312 0.14844-1.3359 0.26562-1.9844 0.36328-0.24609 0.046875-0.46484 0.074219-0.70313 0.10156h-0.003906c-5.5664 4.4609-12.605 6.6719-19.723 6.1953-0.33984-0.050781-0.67578-0.14062-0.99219-0.26953-0.12109 0-0.24219-0.046875-0.39062-0.070313-0.14844-0.023437-0.21484-0.074219-0.31641-0.097656-0.31641 3.1992-0.60547 6.3203-0.91797 9.3984 7.3125 3.6094 14.836 6.7656 22.531 9.4531-0.55469-0.48438-1.0898-0.99219-1.5469-1.4531-2.1875-2.2539-3.3203-3.8047-3.0273-4.2383 0.29297-0.43359 2.2266 0.36328 4.8125 1.9844 1.3125 0.80078 2.8086 1.75 4.4805 2.6641 1.4219 0.9375 3.1094 1.3945 4.8125 1.3125 0.96875-0.14453 2.2266-1.9375 3-3.5859 0.84766-1.6719 1.4805-3.3633 2.0625-4.7734 1.0898-2.8555 2.082-4.6523 2.625-4.4805 0.54297 0.17188 0.55469 2.082 0.14453 5.25-0.12109 0.70312-0.26562 1.5-0.4375 2.3281 2.7383-3.7578 5.0898-7.9961 7.8047-11.375h-0.003906c5.3125-6.293 10.043-13.047 14.141-20.188-3.1719-0.84766-6.082-2.4766-8.4688-4.7344-1.8008-1.9609-3.3281-4.1406-4.9531-6.2031z"/>
  <path d="m370.65 246.63c-13.184 20.668-25.223 43.902-41.164 63.188 1.1562 1.2969 2.4023 2.5117 3.7305 3.6367 1.4297-2.6914 2.5195-4.2383 3.0039-4.0469s0.17188 2.3984-0.77344 5.8125c2.0156 1.4375 4.1641 2.6797 6.418 3.707 0.41406-0.875 0.77734-1.7891 1.1172-2.7109 0.12109-2.7109 0.24609-5.4727 0.36328-8.3125 0.12109-1.6992 0.21875-3.3672 0.33984-5.0195 0.046875-0.82422 0.097656-1.6445 0.17188-2.4453l0.023437-0.60547h-0.003906c0.03125-0.24609 0.078125-0.49219 0.14453-0.73047l0.26562-1.2617c0.62109-3.168 1.6211-6.2539 2.9805-9.1875 2.2695-4.832 5.0625-9.3984 8.3359-13.617 2.6602-4.1016 6.0039-7.7148 9.8867-10.684-2.0273 4.3828-4.5469 8.5195-7.5117 12.332-2.7969 4.2656-5.2188 8.7656-7.2461 13.445-1.1445 2.7031-1.9922 5.5234-2.5195 8.4102l-0.21484 1.1172-0.10156 0.48438v0.60547c-0.046875 0.80078-0.097656 1.625-0.14453 2.4453-0.10156 1.6484-0.19531 3.3477-0.31641 5.0391-0.027344 0.41016-0.046875 0.82812-0.046875 1.2383 0.94531-2.0625 1.8359-4.0938 2.625-6.0312 1.793-4.3398 3.3945-8.2852 5.0195-11.461 3.1992-6.3945 6.3477-9.5 6.6367-9.2305v-0.007812c-1.2266 3.5117-2.6484 6.9492-4.2656 10.301-1.2617 3.1992-2.543 7.1719-4.1172 11.656-0.36328 1.0156-0.77344 2.082-1.1914 3.1719v-0.003906c7.2617-4.7891 13.504-10.965 18.375-18.168 7.9727-12.164 7.875-25.469 9.3281-39.324-3.0508-1.1172-6.0781-2.4023-9.082-3.8555-0.042969 0.042969-0.042969 0.0625-0.066406 0.11328z"/>
  <path d="m346.68 442.85c-0.24609-0.03125-0.48438-0.089843-0.71875-0.17578-0.80859-0.29688-1.7148 0.085938-2.0625 0.875-0.84766 2.5156-2.3672 4.75-4.3906 6.4648-2.0273 1.7148-4.4844 2.8398-7.1055 3.2578-8.5195 0.8125-20.188 1.9258-29.191-1.7734h0.003906c-0.5-0.20312-1.0664-0.15234-1.5195 0.14453-0.44922 0.29297-0.73047 0.78906-0.74219 1.3281-0.054687 1.1211 0.09375 2.2461 0.4375 3.3125 0.17188 0.51172 0.58984 0.90625 1.1094 1.0508 9.4844 2.2188 19.203 3.25 28.941 3.0625 2.6602 0.0625 5.3125 0.12109 7.9453 0.22656l2.707 0.13672c2.4414 0.125 5.082 0.26172 7.7695 0.26172 5.2773 0.25781 10.547-0.71094 15.387-2.8242 0.78125-0.39844 1.1133-1.3438 0.75-2.1406-1.5547-3.8633-4.2227-7.1797-7.6602-9.5312-3.4375-2.3477-7.4961-3.6289-11.66-3.6758z"/>
  <path d="m238.97 517.31c8.3828 7.9961 22.289 7.9023 32.852 10.223v0.003906c6.293 1.9414 12.867 2.8281 19.453 2.625 3.1289-0.39062 11.629-0.75391 15.312-3.4648-0.11719-2.4414-1.625-4.5977-3.875-5.5508-2.0742-1.043-4.25-1.8633-6.4961-2.4453-3.8516-0.99219-7.7266-1.8438-11.484-3.1992v0.003906c-1.1562-0.41406-2.2578-0.94922-3.2969-1.6016-0.035156 0.125-0.082032 0.24609-0.14453 0.36328-1.2852 2.1094-3.7812 3.418-5.0625 5.8125h0.003907c-0.83984 1.1602-1.957 2.0938-3.2461 2.7148-4.5234 2.457-9.957 2.5859-14.59 0.33984-5.1797-1.7383-10.211-3.8945-15.043-6.4453-1.4805 0.25781-2.9336 0.45703-4.3828 0.62109z"/>
  <path d="m452.45 195.44c-0.79297-0.32812-1.5273-0.76953-2.1875-1.3125-1.1914-1.0898-1.918-2.082-2.5664-2.625-0.39062-0.41016-0.70312-0.58203-1.1172-0.33594v-0.003906c-0.65625 0.44922-1.2578 0.96875-1.793 1.5508-0.51562 0.51172-1.0664 0.98828-1.6445 1.4297-1.1406 0.82422-1.75 0.67969-1.918 0.50781-0.16797-0.17188 0.41016-0.80078 0.77344-1.625 0.29297-0.48438 0.60937-1.043 0.99219-1.7188 0.47656-0.89844 1.0938-1.7148 1.8203-2.4219l0.38672-0.36328c0.20312-0.10938 0.41406-0.20703 0.62891-0.28906l0.33984-0.14844 0.17188-0.070312 0.070313-0.027344h0.29297l0.41016-0.027344h0.003906c0.16406-0.035156 0.33984-0.035156 0.50391 0 0.28516 0.03125 0.55859 0.097657 0.82422 0.19922 0.4375 0.12891 0.84766 0.33203 1.2109 0.60156 1.2617 0.82422 2.1367 1.8438 2.9844 2.4219v0.003906c0.39063 0.30078 0.83594 0.52344 1.3125 0.65234 0.51172 0.16797 1.0391 0.27344 1.5742 0.3125 1.2773 0.13672 2.5703 0.082031 3.8281-0.16406 0.64062-0.09375 1.2734-0.24219 1.8906-0.4375 0.30078-0.078125 0.59375-0.18359 0.875-0.31641 0.24219-0.089844 0.47656-0.19531 0.70312-0.3125 0.27344-0.14453 0.51172-0.34375 0.70312-0.58203 0.027344-0.046876 0.074219-0.14453 0-0.48438v-0.003906c-0.40234-0.875-0.99219-1.6484-1.7266-2.2734-0.73047-0.69141-1.5039-1.332-2.3203-1.918-3.1016-2.2539-5.3555-3.1484-5.25-3.707 0.046875-0.55859 2.8359-0.62891 6.6836 1.2109v0.003906c0.87109 0.42578 1.7148 0.91016 2.5195 1.4531 0.085938-0.60938 0.30859-1.1914 0.65625-1.6992-0.41016-0.56641-0.88281-1.0859-1.4102-1.5469-1.7656-1.4648-3.7969-2.5742-5.9844-3.2734-1.5977-0.60547-3.0625-0.84766-3.0977-1.4258s1.043-1.3594 3.4648-1.4297c2.8906-0.03125 5.6992 0.94531 7.9453 2.7578-1.1953-2.8867-2.7852-5.5898-4.7227-8.0391-0.24219-0.14844-0.46094-0.32813-0.65234-0.53516-5.7461-5.6211-18.441 7.6094-19.387 13.156-0.058593 0.32422-0.15234 0.64453-0.28906 0.94531-0.14453 1.1523-0.78516 2.1875-1.75 2.8359-2.5742 1.5781-4.6875 3.8086-6.125 6.4648 2.4414 4.6406 5.8516 8.6992 10.008 11.895 4.793-2.1406 9.3047-4.875 13.422-8.1367 0.19922-0.14453 0.41016-0.27344 0.62891-0.39063-0.39062-0.023437-0.77344-0.023437-1.1641-0.070312-0.86719-0.125-1.7148-0.35547-2.5234-0.6875z"/>
  <path d="m462.09 201.98c-0.85938 0.38672-1.6719 0.875-2.4219 1.4531-0.46875 0.34375-0.6875 0.93359-0.55469 1.5 0.41016 1.3125 0.67969 1.793 1.2109 2.1367 0.35547 0.20703 0.73828 0.36328 1.1367 0.45703 0.20312-0.027344 0.40625-0.066406 0.60547-0.12109 1.75-0.23047 3.5312-0.12891 5.25 0.29297 2.8125 0.67969 4.293 1.9102 4.0469 2.418-0.24609 0.50781-1.8438 0.33984-4.375 0.46484-1.4062 0.007813-2.8086 0.1875-4.1719 0.53516-0.58594 0.14062-1.1445 0.38672-1.6484 0.72656-0.070312 0-0.28906 0.26562-0.4375 0.38672-0.046874 0.027343-0.097656 0.19531-0.17187 0.26562l-0.097657 0.097656 0.003907-0.003906c0.19922 0.28125 0.46484 0.50781 0.77344 0.65625 0.66406 0.42969 1.3555 0.80859 2.0781 1.1289 2.375 1.0898 8.0664 2.1094 10.062-0.070312 1.0977-1.7031 1.1836-3.8672 0.21875-5.6484-0.60938-1.0898-2.1094-1.6992-2.5195-2.8359-0.62891-1.75 1.043-3.6836 0.77344-5.4727-0.65234-4.5312-4.9453-2.5-7.2656-0.77734 0.58203 1.3164-1.5 1.9258-2.4961 2.4102z"/>
  <path d="m478.54 258.8c-0.66406-2.3203-1.2344-4.6602-1.8008-7-0.84766-3.5-1.7227-7.0938-2.918-10.598h-0.003906c-1.8555-5.9258-3.3203-11.965-4.3789-18.082l-0.46875-2.375c-0.046875-0.26562-0.046875-0.53516 0-0.79688l0.23047-1.3984-1.3555-0.4375c-0.4375-0.14453-0.875-0.32422-1.4102-0.55469-0.24609-0.12109-0.4375-0.22656-0.66016-0.35156l-0.55078-0.20703c-0.91406-0.16797-1.8164-0.39062-2.707-0.66797-0.78906-0.25-1.5508-0.57031-2.2812-0.96094l-3.1445-1.6992 1.1875 5.4414-0.003906 0.003906c2.6133 14.32 6.6094 28.348 11.934 41.895l0.5 1.1367 1.2305-0.16797v0.003906c1.8242-0.28125 3.6328-0.66797 5.4141-1.1523l1.6367-0.4375z"/>
  <path d="m275.15 530.29c-3.0234-0.65625-6.1719-1.1602-9.5039-1.6875-11.316-1.7969-23.02-3.6562-29.973-12l-0.49609-0.58984-3.0625 0.14844-0.48047 0.48828c-0.71875 0.44141-1.293 1.0859-1.6523 1.8516l-0.77734 0.77734 0.4375 1.0156c2.2148 5.3008 8.1172 6.9258 13.824 8.4922l1.5391 0.4375c15.152 4.6914 30.891 7.2227 46.746 7.5234 2.1875 0 4.3516-0.0625 6.5273-0.17188v0.003906c2.5859-0.12891 5.0352-1.1875 6.8945-2.9805l5.4023-5.25-7.0938 2.5078c-8.8203 3.1133-22.754 0.64062-28.332-0.56641z"/>
  <path d="m444.02 211.72c-0.074219 0.10938-0.15625 0.21484-0.24609 0.31641-1.8164 1.9375-3.582 4.0469-5.3086 6.1562 1.625 2.082 3.1016 4.2891 4.8945 6.2266l0.003906-0.003907c2.0742 1.9766 4.6172 3.3945 7.3867 4.1172 0.64453-0.54297 1.25-1.125 1.8164-1.75 0.46484-0.48438 0.92188-0.97266 1.4102-1.4297-1.2383-5.5742-2.4492-11.098-3.7109-16.449-1.9805 1.1523-4.0742 2.0977-6.2461 2.8164z"/>
  <path d="m236.18 347.93c0.50781-0.26563 1.0898-0.62891 1.75-0.99219l0.94531-0.53125c0.24219-0.11719 0.46875-0.26562 0.67969-0.4375 0.21484-0.12109 0.19141-0.19141 0.24219-0.21875l-0.003906-0.125c-0.054688-0.65234-0.15234-1.2969-0.28906-1.9375-1.4102-13.039-0.84766-23.234 0.19141-23.359 1.1875-0.14453 2.5195 10.32 3.8516 22.68 0.19141 0.89453 0.29688 1.8008 0.31641 2.7148-0.015625 0.33984-0.054687 0.67969-0.11719 1.0195-0.13281 0.37109-0.28516 0.73437-0.46484 1.0859-0.35547 0.52734-0.80078 0.98828-1.3125 1.3594-0.37891 0.27734-0.78516 0.51953-1.207 0.72656l-0.99609 0.48438c-0.65234 0.31641-1.2812 0.65234-2.0352 0.96875-0.21875 0.097656-0.48047 0.17187-0.69922 0.26562 2.6641 3.0273 5.4023 6.0117 8.043 8.8672 4.9219 5.3086 11.703 9.5469 15.41 15.867 0.046875 0.074218 0.10156 0.12109 0.14844 0.19531 0.50781 0.17188 1.0156 0.36328 1.4531 0.53516 1.3555 0.60547 2.5195 1.207 3.4375 1.5 0.17187 0.027344 0.51172 0.14453 0.55859 0.14453l0.91797 0.074218c0.58203 0.046875 1.1641 0.070313 1.7188 0.11719h2.8594c3.6367-0.19141 5.8633-0.4375 5.9844 0.074218 0.11719 0.41016-1.918 1.4727-5.6484 2.3711-0.99219 0.19531-2.082 0.36328-3.2461 0.53516-0.55469 0.046876-1.1367 0.074219-1.75 0.097657-0.29297 0.027343-0.58203 0.027343-0.875 0.046875 0.24219 0.12109 0.50781 0.24609 0.79688 0.36328 0.51172 0.21875 0.875 0.4375 1.3125 0.65625l0.31641 0.17188 0.41406 0.24219 0.65234 0.41016c1.1953 0.97266 2.5195 1.7695 3.9375 2.375 2.7734 0.26953 5.5703-0.015625 8.2344-0.83984 2.4453-0.65625 4.375-1.3555 5.7188-1.8203 1.3438-0.46484 2.1875-0.75 2.3477-0.50781 0.16016 0.24219-0.36328 0.91797-1.5273 1.8633-1.7227 1.3008-3.6016 2.375-5.5938 3.1992-3.0469 1.4062-6.3945 2.0312-9.7461 1.8203-0.75-0.16406-1.4844-0.40625-2.1875-0.72656 0.13281 0.33984 0.23828 0.6875 0.31641 1.043 2.2266 0.84766 3.9727 1.9844 5.5469 2.7109 0.97656 0.48828 2.0039 0.87109 3.0625 1.1367 0.4375 0.074219 0.875 0.17188 1.2812 0.24609 0.53516 0 1.0469-0.027344 1.5547-0.027344 1.6992-0.12109 3.2734-0.4375 4.457-0.46094 1.1875-0.023437 1.793 0.14453 1.8164 0.41016 0.023438 0.26562-0.50781 0.62891-1.4805 1.0898l0.003906 0.003907c-1.457 0.73047-2.9844 1.3164-4.5547 1.75-0.48047 0.097656-0.99219 0.19141-1.5273 0.28906h-0.097656c-0.085937 0.019531-0.17578 0.027344-0.26562 0.023438h-0.24219l-0.4375-0.027344c-0.33984 0-0.65625 0-0.99219-0.046875-1.3711-0.15625-2.7148-0.48828-4-0.99219-0.94531-0.36328-1.8438-0.77344-2.7109-1.1875v0.003907c1.0898 1.3242 2.0859 2.7227 2.9805 4.1914 0.875 1.4805 1.2109 2.7852 1.6914 3.5859 0.14844 0.26563 0.14844 0.21875 0.14844 0.33594 0.078125 0.09375 0.16797 0.17578 0.26562 0.24609v0.023437l0.097656 0.097657v-0.003907c0.33984 0.12109 0.6875 0.22266 1.043 0.29297 1.5586 0.097656 3.1211 0.0625 4.6758-0.09375 1.1641-0.10156 1.8906-0.074219 1.9844 0.21484 0.097656 0.28906-0.4375 0.73047-1.5469 1.3125v-0.003906c-1.6211 0.83203-3.3945 1.3242-5.2109 1.4453-0.74219 0.039062-1.4844-0.066406-2.1875-0.31641l-0.31641-0.097656c-0.14453-0.074219 0.12109 0.097656-0.26562-0.14844v0.003906c-0.050782-0.03125-0.097656-0.0625-0.14453-0.097656-0.12109-0.097656-0.24609-0.14453-0.39062-0.26562-0.37891-0.31641-0.71094-0.68359-0.99219-1.0898-0.94531-1.2617-1.4062-2.5664-2.0625-3.418h0.003906c-0.39062-0.61719-0.83203-1.2031-1.3125-1.75-1.8906 11.145-8.793 23.887-13.082 32.148-4.3789 9.3828-8.1484 19.039-11.293 28.906-0.65234 1.75-1.5 3.5391-2.3984 5.3555 0.67969-0.36328 1.3555-0.75391 2.0352-1.1172 2.0352-1.1094 4.0703-2.1289 5.8906-3.2188 1.8203-1.0898 3.6328-2.0352 5.2812-2.9805 1.6484-0.94531 3.0625-1.918 4.4336-2.7656 2.7852-1.5469 4.8477-3.3438 6.4219-4.2617 1.5469-0.99219 2.4922-1.4297 2.6914-1.2109 0.19531 0.21875-0.41016 1.0625-1.6484 2.418h-0.003907c-1.7188 1.9609-3.6211 3.7461-5.6875 5.3359-1.3359 1.0156-2.793 2.1289-4.375 3.3438-1.625 1.0664-3.3672 2.1875-5.2109 3.3672s-3.8281 2.3008-5.8633 3.5c-1.0195 0.58203-2.082 1.1641-3.125 1.7734-0.80078 0.4375-1.5547 0.875-2.3008 1.3125-0.21875 0.14453-3.5391 2.6641-2.2578 2.7383v-0.003906c1.3164 0.0625 2.6328 0.007812 3.9375-0.16797 3.6016-0.46094 7.1133-1.4492 10.422-2.9336 5.8359-2.625 9.5195-4.5078 9.8086-3.9375 0.24609 0.4375-2.7617 3.1289-8.5273 6.5625-3.4805 2.0508-7.3086 3.4453-11.289 4.1172l-1.625 0.21875-0.82422 0.097657-0.21875 0.027343h-0.097656l-0.26562 0.027344h-0.41016c-0.55469 0.027344-1.1367 0.046875-1.75 0.046875-0.21875 1.7852-0.089844 3.5977 0.38672 5.332 0.089844 0.12109 0.17188 0.25 0.24609 0.38281 0.16797 0.31641 0.36328 0.65625 0.55469 0.99219 0.19141 0.33594 0.4375 0.65625 0.67969 0.99219l-0.003906 0.003906c0.4375 0.73828 0.95703 1.4258 1.5547 2.0391 0.58203 0.72656 1.2305 1.3984 1.9375 2.0078 0.53125 0.39062 1.5977 1.0664 2.543 1.6992 1.1875 0.72656 2.2266 1.6719 3.0625 2.7852 0.52734 0.76172 0.82031 1.6641 0.84766 2.5898 0 0.77734-0.31641 1.5195-0.875 2.0625-0.40625 0.38672-0.90625 0.66016-1.4531 0.79688-1.1641 0.25781-2.3711 0.24609-3.5352-0.023437-0.87109-0.14844-1.7305-0.35938-2.5703-0.63281-2.9805-0.99219-4.6016-2.0352-4.4805-2.5664 0.12109-0.53516 2.1094-0.48047 5.0391-0.26562 0.72656 0.046875 1.5273 0.10156 2.3477 0.10156 0.36328 0 0.77344 0 1.1641-0.027344h0.003906c-0.55859-0.54687-1.1797-1.0273-1.8438-1.4297-1.0312-0.65625-2.0195-1.375-2.957-2.1602-0.53125-0.45703-1-0.97656-1.4062-1.5469-0.21094 0.19922-0.45703 0.36328-0.72656 0.48438-7.3672 3.125-8.1641 11.312-9.1367 18.414 16.066 0.046875 30.215-5.8203 45.113-11.414h0.003907c0.09375-0.035157 0.19141-0.058594 0.28906-0.070313 2.0039-0.95312 2.9648-3.2617 2.2305-5.3555-0.36328-0.37891-0.60938-0.85938-0.70312-1.3828-0.33594 0.19141-0.67969 0.39062-1.0156 0.55469-0.875 0.48438-1.6484 0.875-2.5195 1.457-0.94531 0.58203-1.918 1.2109-3.0312 1.8438-1.1875 0.57812-2.3008 1.1367-3.7773 1.7891-1.1914 0.46484-2.7188 0.92188-4 1.3125h0.003906c-0.95703 0.28516-1.8984 0.625-2.8125 1.0195 1.0391 0.070312 2.0859 0.054687 3.125-0.050782 1.9102-0.19141 2.9805-0.69922 3.293-0.36328 0.26562 0.24609-0.50781 1.5742-2.7109 2.5195-2.9453 1.0938-6.125 1.4102-9.2305 0.92188l-3.1484-0.39062 2.0547-2.625v0.003906c2.1836-2.4297 5.0469-4.1484 8.2188-4.9219 1.3125-0.41016 2.625-0.82422 3.9375-1.2109 1.1367-0.46094 2.2539-0.91797 3.293-1.3125 1.1172-0.53516 2.1875-1.043 3.1758-1.5039v-0.003906c0.96875-0.44922 1.9727-0.82031 3-1.1094 1.1172-0.33984 2.0117-0.62891 2.7656-0.875 0.79688-2.1094 1.5469-4.2383 2.2734-6.3945l0.003906-0.003906c-0.625 0.45312-1.2734 0.875-1.9414 1.2617-0.65234 0.31641-1.3125 0.65234-2.0078 0.99219-0.97266 0.38672-1.6016 0.58203-2.4219 0.875-0.78906 0.30469-1.6016 0.55469-2.4258 0.74609-3.1133 0.82422-6.3242 1.2305-9.543 1.2148-1.4805-0.097657-2.8828-0.19141-4.1914-0.36328-1.2852-0.24219-2.5-0.4375-3.5625-0.75-1.6953-0.42969-3.3281-1.0625-4.8711-1.8906-1.0664-0.58203-1.625-1.043-1.5273-1.3125 0.33594-1.3125 10.586 2.5664 22.652-0.84766 1.4531-0.33984 3.0039-0.99219 4.1914-1.3359 0.69922-0.28906 1.3828-0.60547 2.0625-0.875s1.0625-0.62891 1.5977-0.91797c1.7578-1.2266 3.2695-2.7695 4.457-4.5547 2.375-7.7773 4.6016-15.605 7.5586-23.188 4.4102-11.293 11.023-21.562 13.395-33.605-0.94531 0.94531-1.8906 1.8633-2.7812 2.7852l0.003906 0.003906c-2.7617 2.957-5.2891 6.125-7.5586 9.4727-1.9258 2.8203-3.9961 5.5352-6.207 8.1406-3.9375 4.6016-7.1484 6.3477-7.4844 5.9844-0.4375-0.46484 2.1562-3.0625 5.1836-7.7305 1.5977-2.3281 3.3203-5.2812 5.375-8.5039h0.003906c2.207-3.6289 4.7812-7.0234 7.6797-10.129 2.5664-2.5664 5.0156-4.8125 6.8828-6.9766 0.4375-3.5352 0.72656-7.0977 0.99219-10.656-1.5742 1.4531-3.3203 2.5898-4.8477 3.7539-0.41406 0.29688-0.80859 0.62109-1.1836 0.96484-0.36328 0.26562-0.80078 0.77734-1.2109 1.1641-0.62891 0.75391-1.3125 1.5039-1.9648 2.4219-0.31641 0.4375-0.65234 0.875-0.96875 1.3125-0.41016 0.48047-0.80078 0.96875-1.2109 1.4531-0.34375 0.45703-0.74219 0.87109-1.1836 1.2344l-0.60547 0.51562-0.29297 0.26562-0.14453 0.11719v0.003906c-0.050781 0.0625-0.10938 0.11719-0.17188 0.17188-0.035156 0.027344-0.078125 0.050781-0.12109 0.074219-3.2109 2.0234-6.6914 3.582-10.344 4.6211-2.9805 0.92187-5.25 1.7734-7.1484 2.1367-1.75 0.36328-2.7383 0.17188-2.8086-0.046875-0.10156-0.31641 0.875-0.70312 2.3711-1.4805 1.4102-0.70312 3.6836-2.0352 6.5195-3.293 3.2148-1.3125 6.2773-2.9727 9.1367-4.9453 0.71094-0.625 1.3672-1.3164 1.957-2.0586l0.82812-1.1172c0.31641-0.4375 0.62891-0.875 0.94531-1.3555 0.62891-0.875 1.4258-1.8906 2.2734-2.8828 0.40625-0.45312 0.83594-0.87891 1.2891-1.2812 0.50781-0.4375 1.0625-0.92188 1.5469-1.2617 1.8242-1.2383 3.5781-2.582 5.25-4.0195l0.91797-1.0469c0.34375-0.40234 0.66797-0.82422 0.97266-1.2617 0.24219-0.33594 0.48438-0.67969 0.72656-1.043 0.33984-4.1172 0.77344-8.2109 1.5-12.281v0.003906c-0.68359-1.668-1.1758-3.4102-1.4727-5.1875-0.11719-0.70703-0.11328-1.4297 0.019531-2.1328 0.074219-0.48438 0.19141-0.72656 0.33984-0.72656 0.33594 0 0.50781 0.96875 1.1602 2.4727 0.035156 0.023437 0.054688 0.058594 0.054688 0.097656-1.0938-9.1875-7.9727-19.113-12.285-27.598-9.5-2.2734-20.562-10.758-27.09-15.191-15.312-10.367-35.516-20.562-46.375-36.516v0.003907c-1.0039 2.9844-1.6719 6.0742-1.9883 9.207-0.26562 3.0625-0.53516 6.3477-0.55859 9.625 0.4375-0.22656 0.89063-0.42969 1.3555-0.60547 3.7031-1.1797 7.4844-2.0859 11.32-2.7148l0.60547-0.12109 2.3281-0.50781 0.19141 2.1875c0.84766 9.0859-0.39062 16.016-1.4062 16.016-1.0898 0.046875-1.6719-5.8906-2.4219-13.305-4 0.72656-7.4375 0.82812-9.8867 1.2109-0.75 0.097656-1.4531 0.19141-2.0547 0.29297l-0.003906 0.003906c-0.12891 6.2422 1.4648 12.402 4.6016 17.805 2.9023 4.3906 6.082 8.5898 9.5195 12.574 0.66406-0.015626 1.3125-0.1875 1.8984-0.5z"/>
  <path d="m251.52 265.96c4.8945-0.69922 9.3789-1.3555 13.352-1.75-3.3672-3.6367-6.7852-7.1953-10.422-10.5-0.33594 0.33984-0.67969 0.65625-1.0156 0.99219-1.9375 1.8672-3.9727 3.875-6.0312 5.9844 1.0664 1.8203 2.2266 3.5859 3.5 5.3555z"/>
  <path d="m269.42 324.75c4.8125 3.2695 10.395 7.4609 16.188 10.855 11.227-5.1758 21.402-12.379 30.016-21.25-23.285-7.1484-50.664-24.012-66.238-44.188-2.0859 0.36328-4.1953 0.75-6.3945 1.1367-2.6016 0.39453-5.0938 1.3008-7.3398 2.668-2.2344 2.8008-4.3047 5.7305-6.207 8.7695 0.27734 0.21094 0.57031 0.39844 0.875 0.55469 1.1641 0.58203 2.6641 1.1367 4.0195 1.75 5.4531 2.375 10.367 4.5078 14.488 6.3008 2.0352 0.84766 3.875 1.625 5.5 2.2734 1.625 0.65234 3.1719 1.0898 4.3359 1.5273 2.3984 0.875 3.6836 1.4805 3.6094 1.75-0.074219 0.26953-1.5 0.19141-3.9961-0.19141-1.2383-0.21875-2.7656-0.41406-4.5078-0.84766-1.75-0.53516-3.7578-1.1406-5.9375-1.793-4.3398-1.4297-9.3555-3.418-14.875-5.5273-1.3555-0.55469-2.7617-0.99219-4.375-1.75-0.36328-0.19531-0.75391-0.39062-1.1641-0.65625-0.4375 0.77344-0.84766 1.5273-1.2617 2.3008 8.7812 16.473 28.363 26.211 43.266 36.316zm-12.383-35.57v0.003907c-4.082-2.0039-7.8281-4.6367-11.094-7.8008-0.57422-0.52734-1.0703-1.1328-1.4805-1.793-0.39062-0.55859-0.67969-1.0664-0.92188-1.4805-0.46094-0.875-0.62891-1.4297-0.41016-1.625 0.21875-0.19141 0.75391 0 1.5742 0.53516 0.41016 0.26562 0.875 0.60547 1.4297 1.0156 0.56641 0.47656 1.1719 0.89844 1.8164 1.2617 3.5469 2.2734 7.2109 4.3594 10.977 6.25 3.9531 1.9297 7.7656 4.1289 11.41 6.5898 2.7852 2.0625 4.2188 3.7109 3.875 4.1445-0.33984 0.43359-2.3008-0.28906-5.3008-1.625-3-1.3359-7.2461-3.125-11.875-5.4648zm1.2344 12.453c1.418 1.1641 2.9336 2.2031 4.5312 3.1016 2.4961 1.2461 5.0703 2.3203 7.707 3.2266 1.5 0.55469 3.1484 1.1367 4.8125 1.8438 1.625 0.62891 3.3438 1.4531 4.9648 2.0078l1.2109 0.4375 1.1914 0.26562 1.1094 0.24219 1.3125 0.12109c1.75 0.17188 3.4648 0.4375 5.0625 0.53516 1.5977 0.097656 3.0625 0.24219 4.4844 0.36328l3.9375 0.14453c2.4219 0.19141 4.375 0.027343 5.7383 0.12109 1.3633 0.097657 2.1875 0.24219 2.2539 0.50781 0.29297 0.875-12.02 4.8125-27.715 1.1172-1.9375-0.65625-3.5-1.4805-5.1641-2.1875-1.6641-0.70703-3.1719-1.3789-4.6523-2.0078l0.003906-0.003906c-2.7656-1.1523-5.3945-2.5977-7.8477-4.3125-1.6836-1.2461-3.1172-2.7891-4.2422-4.5547-0.63281-1.2383-0.875-2.0117-0.65625-2.1875 0.21875-0.17578 0.93359 0.27344 1.957 1.2188z"/>
  <path d="m409.56 222.16c1.5742-1.2109 3.4141-2.6641 5.5195-4.1914 2.0117-1.625 4.2891-3.3477 6.5625-5.25 2.2266-1.9844 4.3125-3.7539 6.4219-5.5469v-0.003906c1.25-0.78906 2.1914-1.9883 2.6641-3.3906-1.4648-1.707-2.7812-3.5391-3.9375-5.4766-5.0664 3.875-10.297 7.5117-15.629 11.047h0.003907c-4.1172 3.082-8.793 5.3359-13.766 6.6406h-0.027344c-0.48047 0.24609-1.0625 0.53516-1.4258 0.75391-0.46484 0.28906-0.92188 0.55469-1.3555 0.82422-1.3477 0.71094-2.4727 1.7852-3.2461 3.1016-1.0664 2.3281-0.99609 4.5547-1.6484 4.582-0.29297 0.023438-0.58203-0.41016-0.92188-1.3125v-0.003906c-0.17188-0.51562-0.27734-1.0508-0.3125-1.5938-0.33984-0.79688-0.59375-1.625-0.75391-2.4727-0.39063-2.4805-0.91016-4.9414-1.5508-7.3672-0.070312-0.26562-0.19141-0.50781-0.28906-0.77344v-0.003907c-6.0195-5.5508-12.477-10.605-19.312-15.117-0.38281 0.35156-0.82812 0.63281-1.3125 0.82422-7.1953 3.2344-12.496 9.6055-14.371 17.266-1.1641 6.375 3.3906 11.121 7.918 14.926 8.7812 7.5273 19.113 13.027 30.262 16.109 0.12109 0.027344 0.19531 0.074219 0.31641 0.097656 1.4258 0.0625 2.8516-0.058593 4.2422-0.36328-3.9141-1.0117-7.5586-2.8633-10.688-5.4258-1.0469-0.90234-1.9258-1.9844-2.5898-3.1992-0.39063-0.89844-0.39063-1.4297-0.17188-1.6016 0.21875-0.17188 0.72656 0.14844 1.4531 0.65625 0.65625 0.41016 1.6719 1.0664 2.9805 1.75 3.4492 1.8086 7.1133 3.1758 10.902 4.0742 1.0352 0.23828 2.0898 0.39844 3.1484 0.48047 0.46094 0.054687 0.92187 0.070313 1.3828 0.050781 0.046875 0 0.36328 0 0.19141 0.027344l0.41406-0.074219 0.77344-0.11719 0.003906-0.003906c1.2148-0.30469 2.3984-0.71875 3.5352-1.2383 5.1523-2.8203 9.8242-6.4414 13.844-10.723 5.9336-6.9023 11.531-13.977 17.613-20.738-1.0938-0.875-2.1367-1.8438-3.1484-2.8359-0.66406 1.3086-1.5703 2.4727-2.6719 3.4414-1.75 1.75-3.9961 3.8281-6.2969 5.8633h0.003907c-2.2578 1.8594-4.6133 3.5977-7.0547 5.207-2.2734 1.4062-4.375 2.625-6.125 3.5625-3.5859 1.8203-5.957 2.6914-6.25 2.1875s1.5234-2.2031 4.6992-4.6484z"/>
  <path d="m242.27 267.91c1.6445-0.26562 3.168-0.50781 4.668-0.72656l0.875-0.125-0.5-0.72656c-0.66797-0.97656-1.3633-2.0469-2.0703-3.1953l-0.37109-0.60938-0.48828 0.51562c-1.3125 1.4102-2.625 2.832-3.8633 4.2305l-1.0312 1.1719 1.5352-0.26953c0.41406-0.070312 0.86719-0.17188 1.2461-0.26562z"/>
  <path d="m319.94 320.34c2.3906 2.1094 5.0352 3.9102 7.875 5.3555 0.24609-0.53516 0.46484-1.0938 0.67969-1.625 0.53516-1.2109 1.0469-2.375 1.5273-3.5 0.55859-1.3125 1.0664-2.543 1.5742-3.707v0.003906c-1.6133-1.2773-3.1211-2.6875-4.5039-4.2188-2.3047 2.6484-4.6875 5.2148-7.1523 7.6914z"/>
  <path d="m271.12 519.69c2.6875-1.75 2.7812-4.9453 5.4023-6.4453l0.003907 0.003906c1.0664-0.40625 1.6133-1.5898 1.2305-2.668-0.5-0.70703-0.92969-1.4609-1.2852-2.25-0.33594-0.4375-0.67969-0.92188-0.96875-1.3555l0.003906-0.003906c-8.5352 3.4492-17.293 6.3164-26.215 8.5781 2.2539 0.875 4.5312 1.5742 6.7852 2.5664 4.793 2.1328 9.9258 4.9648 15.043 1.5742z"/>
 </g>
</svg>
