<svg xmlns="http://www.w3.org/2000/svg" viewBox="0 0 540 540"><defs><style>.cls-1{fill:#000;stroke:#DCD9D4;stroke-miterlimit:10;}</style></defs>
<g id="Australia"><polygon id="Australia-2" data-name="Australia" class="cls-1" points="436.99 348.19 436.99 365.25 434.3 370.64 437.44 373.78 463.93 367.05 469.32 371.09 473.81 368.84 475.61 378.27 490.43 379.62 505.24 363.9 505.69 352.23 496.71 338.76 494.47 326.63 490.87 326.19 491.32 332.47 486.83 337.41 478.75 331.13 481 326.63 470.22 326.63 468.42 332.47 462.14 330.23 450.91 341.45 436.99 348.19"/></g>
<g id="South_America" data-name="South America"><polygon id="South_America-2" data-name="South America" class="cls-1" points="161.79 350.58 173.93 344.19 176.49 325.34 182.88 318.95 182.56 313.84 172.66 307.13 164.03 307.13 163.71 304.25 158.92 302.34 155.72 304.57 156.68 301.38 152.85 300.74 147.42 306.17 153.81 298.19 149.02 289.56 139.43 289.24 133.36 281.89 124.74 281.25 121.54 278.38 109.72 278.06 105.89 284.13 103.01 287.96 103.33 296.27 96.63 303.3 96.94 312.56 109.4 333.32 119.63 340.67 121.22 382.52 125.38 386.99 126.02 395.94 134 405.84 139.43 406.16 138.16 383.16 149.66 377.41 145.82 370.7 150.61 373.26 160.52 357.6 161.79 350.58"/>
    <polygon id="Falkan_Islands" data-name="Falkan Islands" class="cls-1" points="147.74 411.27 141.35 411.91 137.84 409.04 139.43 406.16 147.74 411.27"/></g>
<g id="Mexico"><polygon id="Mexico-2" data-name="Mexico" class="cls-1" points="41.04 236.85 41.68 245.16 48.07 256.34 50.94 254.74 46.79 244.2 46.47 239.72 49.03 239.72 49.34 244.2 57.65 265.28 70.43 270.71 74.9 269.75 77.14 272.31 86.08 277.1 91.83 285.09 97.9 287 102.06 285.73 104.29 283.81 97.9 281.89 94.39 282.21 94.07 270.07 85.13 269.75 88.32 263.36 88.32 259.85 83.53 259.21 80.97 263.68 72.98 264.32 69.47 255.06 72.35 252.18 67.55 242.28 62.44 242.6 60.21 239.09 41.04 236.85"/></g>
<g id="US"><polygon id="North_America" data-name="North America" class="cls-1" points="50.3 205.54 36.25 220.56 36.25 231.74 40.08 236.21 59.57 239.09 62.44 242.6 67.55 241.96 72.03 252.18 80.01 242.28 98.54 242.6 99.82 250.27 103.97 251.54 103.97 238.76 134.96 213.53 137.84 209.38 133.36 209.38 129.85 211.93 120.58 211.93 118.67 214.49 114.52 213.85 113.88 210.33 109.72 209.38 108.44 204.58 99.5 207.46 95.03 204.9 50.3 205.54"/></g>
<g id="Canada"><polygon id="Canada-2" data-name="Canada" class="cls-1" points="50.94 204.26 46.79 199.15 47.75 189.89 43.91 183.82 24.75 183.82 10.05 192.76 4.94 192.12 12.93 186.69 9.09 186.06 14.52 178.71 24.43 176.15 17.08 175.19 19.32 172 28.26 172.64 28.58 168.48 37.52 165.29 59.57 165.61 62.76 166.89 89.92 166.57 102.38 172 108.44 169.76 119.95 171.36 124.74 169.12 124.1 166.57 128.57 164.65 129.85 167.53 132.41 168.8 131.77 171.36 136.88 167.84 141.35 168.16 137.2 172.64 126.02 174.24 127.29 176.79 120.27 177.11 109.08 186.37 120.27 193.08 120.58 199.15 123.46 199.79 138.16 178.71 143.27 178.71 147.1 182.22 146.78 187.65 155.41 184.78 156.36 194.04 162.43 195.32 162.43 198.19 153.81 202.67 141.99 202.99 136.24 205.86 142.95 205.22 141.99 209.06 143.91 211.29 148.7 211.29 138.79 215.44 141.35 211.61 135.92 212.89 137.84 209.06 132.72 209.38 129.85 211.61 120.27 211.29 117.71 213.85 113.88 212.57 113.56 209.06 110.04 209.06 108.77 203.31 99.18 206.82 95.03 203.63 50.94 204.26"/>
    <polygon class="cls-1" points="158.28 202.35 152.85 207.46 163.07 207.46 161.16 203.63 158.28 202.35"/>
    <polygon id="Greenland" class="cls-1" points="182.24 168.48 177.45 171.68 177.45 179.03 180.64 183.18 186.07 182.86 193.1 176.15 203.32 172.96 206.52 170.08 219.62 168.16 229.2 151.87 234.31 151.87 237.19 149 218.02 146.44 201.73 148.68 185.44 149 167.23 154.43 166.91 157.62 180.32 157.62 183.2 163.05 182.24 168.48"/>
    <polygon id="Iceland" class="cls-1" points="216.42 175.19 216.42 177.75 225.69 179.66 231.76 175.19 226.97 172.64 222.81 173.91 216.42 175.19"/>
    <polygon class="cls-1" points="180.64 146.44 173.29 150.59 155.09 157.62 144.86 156.34 151.25 155.07 150.61 151.55 153.49 153.47 153.17 149.96 163.39 149.96 153.17 147.4 180.64 146.44"/>
    <polygon class="cls-1" points="138.79 160.5 134.32 166.25 147.74 166.25 153.49 172.64 148.06 172.64 146.46 175.19 140.07 174.87 141.35 177.11 147.1 177.43 152.21 181.58 153.49 177.43 155.41 180.62 158.28 179.99 157.64 173.91 161.47 175.19 164.35 173.28 161.79 169.44 159.88 166.25 145.5 160.82 140.39 164.33 142.31 160.82 138.79 160.5"/>
    <polygon class="cls-1" points="130.81 175.51 127.29 178.07 134.32 179.35 136.24 175.83 130.81 175.51"/>
    <polygon class="cls-1" points="129.21 160.5 129.21 163.05 135.28 162.41 134.64 159.22 129.21 160.5"/>
    <polygon class="cls-1" points="119.63 160.82 122.18 164.97 126.33 163.05 127.29 156.98 119.63 160.82"/>
    <polygon class="cls-1" points="116.43 162.09 114.19 165.61 117.07 167.21 112.6 168.48 107.17 167.53 102.69 169.76 96.31 165.93 101.1 165.29 97.58 163.05 104.93 160.5 107.49 163.69 108.44 161.46 111.96 161.46 111.64 164.65 113.88 157.62 116.43 162.09"/>
    <polygon class="cls-1" points="88.64 160.82 90.56 164.65 102.69 160.18 99.5 156.66 88.64 160.82"/>
    <polygon class="cls-1" points="141.67 150.28 146.78 153.15 150.61 151.55 147.1 147.4 141.67 150.28"/></g>
<g id="Africa"><polygon id="Africa-2" data-name="Africa" class="cls-1" points="263.83 229.14 251.95 228.54 243.04 232.7 232.94 232.11 214.52 255.28 213.33 277.26 229.97 295.08 250.76 289.14 256.11 289.14 254.32 293.89 261.45 293.89 262.05 304.58 269.18 315.28 269.18 328.35 264.42 333.69 277.49 369.33 293.53 370.52 304.82 355.67 304.22 349.73 308.98 349.14 308.38 340.23 319.08 331.91 316.7 305.77 340.46 282.01 338.08 275.47 324.42 279.63 302.44 241.02 282.24 235.67 279.27 241.02 271.55 238.05 265.02 235.08 263.83 229.14"/></g>
<g id="Europe_Asia" data-name="Europe/Asia"><path id="Europe" class="cls-1" d="M486,182.55s.23.35-2.5,2.63v6.75L495,202.18l.25-9.75L489,185.68l15-5.25-6.29-3.06,2.61-3.48L509,175.2l-1.74-4.35L482,166.07l-35.64-.87-3.48-3.48-12.6-.87-3.48,3.48-10.43-.43-3.48-3.05h-23l-2.17-5.65-23,.44-18.26,7.82,2.61,6.09-2.17,3-3.91-10.43-6.52-.87,2.6,6.52-20.86.87-21.3,7.82-3-3.91,11.3-1.3-13.91-5.66-13.47.87-22.17,14.78,2.17,5.65h7.82l3.92,5.22,6.95-6.52-2.61-3.48,2.51-3.13,4.45-5.56,2.17.37-3.72,8,4,2.23,5.67.6-6.71.75v2.08l1,1.64L280,187.84l-.44,6-15.36,1-.15-5.67-2.68-.3-1.94,3.28,1.34,2.54-16.4,10.58-4.17.45V208l3.88,1.78v5.67l-12.53-.3-.15,10.73,1.35,3.14,10,.29,9.54-12.22,8.35.45v-3.88l3.28.15,8.5,8.94.45,3.88,2.68-.89v-2.54h1.94l-11.18-10.73,4.17-.15,4.47,5.37,3.58.74.15,3.58,1.49,2.53,3.43,1.05-2.24.89,3,3.13,2.38-3-1.49-3.43,3.43-2.53,6,.3-1.34-3.28,2.09-6.12,5.21.15,2.09,2.24,2.54-.3-2.09-3.88,6.56-1.34.59,1.79-2.08.3-.15,3.58,7.45,3v2.38l-19.53.3L294.12,223l-3.28-.15,2.69,6.26,14.31.75-2.27,10.53L323,270.2l1.45,6.91L343,268.75l9.45-10.9-7.27-6.91-3.27,2.91-5.81-1.45-6.18-10.18h4.73l4.72,6.54,13.44,3.64,12-.37,1.45,3.27,4,1.09,1.09,5.09h2.9l1.46-4.72,8.35,28,7.27-2.91.73-11.26L407,256.76l7.63,7.27,1.09,5.45,3.27,1.45,1.09-4,3.27,4.36.36,6.54-1.09,6.91,5.09,4.36.73,4.72,7.63,7.27,1.45-4.36L427.3,282.92l.36-8.36,5.45,6.54H436v3.64l8-5.09v-8l-8-6.54.36-4,2.68-1.71,1.32-.83,1.09,3.63L455.64,256,460,245.49l-7.27-13.08,3.27-4.36L450.55,227l-4.36-5.09,4.36-1.09,1.95,3.95,4.3-2,1.36,4.31,3.18.46,2.72,6.34,4.08.23.91-5.21-6.8-5.45,2.49-.22-.23-5.22,4.43-1.05,3.55-4.56-.51-7.61-8.62-10.65-7.1,1,2-8.62H473l1.52-5.08,7.61,2v-5.07l4.06,4.57"/></g></svg>
